<svg xmlns="http://www.w3.org/2000/svg" width="553.952" height="159.715" viewBox="0 0 553.952 159.715">
  <g id="Group_55" data-name="Group 55" transform="translate(-698.233 -1931)" opacity="0.097">
    <g id="Group_52" data-name="Group 52">
      <g id="Group_31" data-name="Group 31" transform="translate(188.361 1828.5)">
        <g id="Ellipse_18" data-name="Ellipse 18" transform="translate(630 230)" fill="none" stroke="#171833" stroke-width="6">
          <circle cx="15" cy="15" r="15" stroke="none"/>
          <circle cx="15" cy="15" r="12" fill="none"/>
        </g>
        <g id="Ellipse_24" data-name="Ellipse 24" transform="translate(522 132)" fill="none" stroke="#171833" stroke-width="6">
          <circle cx="15" cy="15" r="15" stroke="none"/>
          <circle cx="15" cy="15" r="12" fill="none"/>
        </g>
        <circle id="Ellipse_23" data-name="Ellipse 23" cx="8.5" cy="8.5" r="8.5" transform="translate(624 104)" fill="none" stroke="#171833" stroke-width="3"/>
        <circle id="Ellipse_19" data-name="Ellipse 19" cx="4.5" cy="4.5" r="4.5" transform="translate(671 218)" fill="#171833"/>
        <circle id="Ellipse_22" data-name="Ellipse 22" cx="4.5" cy="4.5" r="4.5" transform="translate(581 147)" fill="#171833"/>
        <circle id="Ellipse_25" data-name="Ellipse 25" cx="4.5" cy="4.5" r="4.5" transform="translate(586 249)" fill="#171833"/>
        <g id="Group_30" data-name="Group 30" transform="translate(-16.07 304.964) rotate(-30)">
          <rect id="Rectangle_8" data-name="Rectangle 8" width="33.356" height="30.719" rx="4" transform="translate(549 190)" fill="#171833"/>
          <rect id="Rectangle_9" data-name="Rectangle 9" width="20.945" height="15.36" rx="7" transform="translate(568.332 197.646)" fill="#171833"/>
        </g>
      </g>
      <g id="Group_50" data-name="Group 50" transform="translate(698.233 2043.715)">
        <g id="Group_46" data-name="Group 46" transform="translate(0 0)">
          <g id="Group_45" data-name="Group 45">
            <g id="Group_44" data-name="Group 44">
              <path id="Path_20" data-name="Path 20" d="M59.225,63h-39.5l3.708-13.672-5.46,2.266,2.339-8.8L25.789,40.8,32.4,16H48.289L43.406,34.38l6.928-2.54-2.17,8.74L41.093,43.26,38.479,53.276H62.138Zm-37.38-1.621H58.018l1.94-6.483H36.38L39.735,42.04,46.8,39.364l1.23-4.951-6.987,2.559L46.18,17.621H33.643L27.137,42.038,21.664,44.03l-1.279,4.812,5.48-2.275Z" transform="translate(-17.977 -16)" fill="#171833"/>
            </g>
          </g>
        </g>
      </g>
      <g id="Group_51" data-name="Group 51" transform="translate(812.441 1983.903) rotate(-30)">
        <g id="Group_46-2" data-name="Group 46" transform="translate(0 0)">
          <g id="Group_45-2" data-name="Group 45">
            <g id="Group_44-2" data-name="Group 44">
              <path id="Path_20-2" data-name="Path 20" d="M59.225,63h-39.5l3.708-13.672-5.46,2.266,2.339-8.8L25.789,40.8,32.4,16H48.289L43.406,34.38l6.928-2.54-2.17,8.74L41.093,43.26,38.479,53.276H62.138Zm-37.38-1.621H58.018l1.94-6.483H36.38L39.735,42.04,46.8,39.364l1.23-4.951-6.987,2.559L46.18,17.621H33.643L27.137,42.038,21.664,44.03l-1.279,4.812,5.48-2.275Z" transform="translate(-17.977 -16)" fill="#171833"/>
            </g>
          </g>
        </g>
      </g>
    </g>
    <g id="Group_53" data-name="Group 53" transform="translate(189)">
      <g id="Group_31-2" data-name="Group 31" transform="translate(188.361 1828.5)">
        <g id="Ellipse_18-2" data-name="Ellipse 18" transform="translate(630 230)" fill="none" stroke="#171833" stroke-width="6">
          <circle cx="15" cy="15" r="15" stroke="none"/>
          <circle cx="15" cy="15" r="12" fill="none"/>
        </g>
        <g id="Ellipse_24-2" data-name="Ellipse 24" transform="translate(522 132)" fill="none" stroke="#171833" stroke-width="6">
          <circle cx="15" cy="15" r="15" stroke="none"/>
          <circle cx="15" cy="15" r="12" fill="none"/>
        </g>
        <circle id="Ellipse_23-2" data-name="Ellipse 23" cx="8.5" cy="8.5" r="8.5" transform="translate(624 104)" fill="none" stroke="#171833" stroke-width="3"/>
        <circle id="Ellipse_19-2" data-name="Ellipse 19" cx="4.5" cy="4.5" r="4.5" transform="translate(671 218)" fill="#171833"/>
        <circle id="Ellipse_22-2" data-name="Ellipse 22" cx="4.5" cy="4.5" r="4.5" transform="translate(581 147)" fill="#171833"/>
        <circle id="Ellipse_25-2" data-name="Ellipse 25" cx="4.5" cy="4.5" r="4.5" transform="translate(586 249)" fill="#171833"/>
        <g id="Group_30-2" data-name="Group 30" transform="translate(-16.07 304.964) rotate(-30)">
          <rect id="Rectangle_8-2" data-name="Rectangle 8" width="33.356" height="30.719" rx="4" transform="translate(549 190)" fill="#171833"/>
          <rect id="Rectangle_9-2" data-name="Rectangle 9" width="20.945" height="15.36" rx="7" transform="translate(568.332 197.646)" fill="#171833"/>
        </g>
      </g>
      <g id="Group_50-2" data-name="Group 50" transform="translate(698.233 2043.715)">
        <g id="Group_46-3" data-name="Group 46" transform="translate(0 0)">
          <g id="Group_45-3" data-name="Group 45">
            <g id="Group_44-3" data-name="Group 44">
              <path id="Path_20-3" data-name="Path 20" d="M59.225,63h-39.5l3.708-13.672-5.46,2.266,2.339-8.8L25.789,40.8,32.4,16H48.289L43.406,34.38l6.928-2.54-2.17,8.74L41.093,43.26,38.479,53.276H62.138Zm-37.38-1.621H58.018l1.94-6.483H36.38L39.735,42.04,46.8,39.364l1.23-4.951-6.987,2.559L46.18,17.621H33.643L27.137,42.038,21.664,44.03l-1.279,4.812,5.48-2.275Z" transform="translate(-17.977 -16)" fill="#171833"/>
            </g>
          </g>
        </g>
      </g>
      <g id="Group_51-2" data-name="Group 51" transform="translate(812.441 1983.903) rotate(-30)">
        <g id="Group_46-4" data-name="Group 46" transform="translate(0 0)">
          <g id="Group_45-4" data-name="Group 45">
            <g id="Group_44-4" data-name="Group 44">
              <path id="Path_20-4" data-name="Path 20" d="M59.225,63h-39.5l3.708-13.672-5.46,2.266,2.339-8.8L25.789,40.8,32.4,16H48.289L43.406,34.38l6.928-2.54-2.17,8.74L41.093,43.26,38.479,53.276H62.138Zm-37.38-1.621H58.018l1.94-6.483H36.38L39.735,42.04,46.8,39.364l1.23-4.951-6.987,2.559L46.18,17.621H33.643L27.137,42.038,21.664,44.03l-1.279,4.812,5.48-2.275Z" transform="translate(-17.977 -16)" fill="#171833"/>
            </g>
          </g>
        </g>
      </g>
    </g>
    <g id="Group_54" data-name="Group 54" transform="translate(378)">
      <g id="Group_31-3" data-name="Group 31" transform="translate(188.361 1828.5)">
        <g id="Ellipse_18-3" data-name="Ellipse 18" transform="translate(630 230)" fill="none" stroke="#171833" stroke-width="6">
          <circle cx="15" cy="15" r="15" stroke="none"/>
          <circle cx="15" cy="15" r="12" fill="none"/>
        </g>
        <g id="Ellipse_24-3" data-name="Ellipse 24" transform="translate(522 132)" fill="none" stroke="#171833" stroke-width="6">
          <circle cx="15" cy="15" r="15" stroke="none"/>
          <circle cx="15" cy="15" r="12" fill="none"/>
        </g>
        <circle id="Ellipse_23-3" data-name="Ellipse 23" cx="8.5" cy="8.5" r="8.5" transform="translate(624 104)" fill="none" stroke="#171833" stroke-width="3"/>
        <circle id="Ellipse_19-3" data-name="Ellipse 19" cx="4.5" cy="4.5" r="4.5" transform="translate(671 218)" fill="#171833"/>
        <circle id="Ellipse_22-3" data-name="Ellipse 22" cx="4.5" cy="4.5" r="4.5" transform="translate(581 147)" fill="#171833"/>
        <circle id="Ellipse_25-3" data-name="Ellipse 25" cx="4.5" cy="4.5" r="4.5" transform="translate(586 249)" fill="#171833"/>
        <g id="Group_30-3" data-name="Group 30" transform="translate(-16.07 304.964) rotate(-30)">
          <rect id="Rectangle_8-3" data-name="Rectangle 8" width="33.356" height="30.719" rx="4" transform="translate(549 190)" fill="#171833"/>
          <rect id="Rectangle_9-3" data-name="Rectangle 9" width="20.945" height="15.36" rx="7" transform="translate(568.332 197.646)" fill="#171833"/>
        </g>
      </g>
      <g id="Group_50-3" data-name="Group 50" transform="translate(698.233 2043.715)">
        <g id="Group_46-5" data-name="Group 46" transform="translate(0 0)">
          <g id="Group_45-5" data-name="Group 45">
            <g id="Group_44-5" data-name="Group 44">
              <path id="Path_20-5" data-name="Path 20" d="M59.225,63h-39.5l3.708-13.672-5.46,2.266,2.339-8.8L25.789,40.8,32.4,16H48.289L43.406,34.38l6.928-2.54-2.17,8.74L41.093,43.26,38.479,53.276H62.138Zm-37.38-1.621H58.018l1.94-6.483H36.38L39.735,42.04,46.8,39.364l1.23-4.951-6.987,2.559L46.18,17.621H33.643L27.137,42.038,21.664,44.03l-1.279,4.812,5.48-2.275Z" transform="translate(-17.977 -16)" fill="#171833"/>
            </g>
          </g>
        </g>
      </g>
      <g id="Group_51-3" data-name="Group 51" transform="translate(812.441 1983.903) rotate(-30)">
        <g id="Group_46-6" data-name="Group 46" transform="translate(0 0)">
          <g id="Group_45-6" data-name="Group 45">
            <g id="Group_44-6" data-name="Group 44">
              <path id="Path_20-6" data-name="Path 20" d="M59.225,63h-39.5l3.708-13.672-5.46,2.266,2.339-8.8L25.789,40.8,32.4,16H48.289L43.406,34.38l6.928-2.54-2.17,8.74L41.093,43.26,38.479,53.276H62.138Zm-37.38-1.621H58.018l1.94-6.483H36.38L39.735,42.04,46.8,39.364l1.23-4.951-6.987,2.559L46.18,17.621H33.643L27.137,42.038,21.664,44.03l-1.279,4.812,5.48-2.275Z" transform="translate(-17.977 -16)" fill="#171833"/>
            </g>
          </g>
        </g>
      </g>
    </g>
  </g>
</svg>
