<svg xmlns="http://www.w3.org/2000/svg" width="598" height="598" viewBox="0 0 598 598">
  <g id="Group_50" data-name="Group 50" transform="translate(-623 -1234)">
    <circle id="Ellipse_17" data-name="Ellipse 17" cx="299" cy="299" r="299" transform="translate(623 1234)" fill="#1d1d1d" opacity="0.07"/>
    <g id="Group_2" data-name="Group 2" transform="translate(646 1257)">
      <circle id="Ellipse_1" data-name="Ellipse 1" cx="276" cy="276" r="276" fill="#00aeff"/>
    </g>
    <g id="Group_48" data-name="Group 48" transform="translate(575 813)">
      <circle id="Ellipse_2" data-name="Ellipse 2" cx="250" cy="250" r="250" transform="translate(97 471)" fill="#fff"/>
    </g>
    <rect id="Rectangle_2" data-name="Rectangle 2" width="27" height="7" transform="translate(671 1530)" fill="#00aeff"/>
    <rect id="Rectangle_3" data-name="Rectangle 3" width="27" height="7" transform="translate(1146 1530)" fill="#00aeff"/>
    <rect id="Rectangle_4" data-name="Rectangle 4" width="27.423" height="7.077" transform="translate(925.077 1283.212) rotate(90)" fill="#00aeff"/>
    <rect id="Rectangle_5" data-name="Rectangle 5" width="27.423" height="7.077" transform="translate(925.077 1757.365) rotate(90)" fill="#00aeff"/>
    <g id="Group_47" data-name="Group 47" transform="translate(835.233 1429.389)">
      <g id="Group_46" data-name="Group 46" transform="translate(0 0)">
        <g id="Group_45" data-name="Group 45">
          <g id="Group_44" data-name="Group 44">
            <path id="Path_20" data-name="Path 20" d="M185.889,207.326H25.109L40.2,151.67l-22.227,9.223,9.52-35.824,22.28-8.108L76.681,16h64.688L121.491,90.822l28.2-10.338-8.834,35.58-28.785,10.906-10.642,40.772h96.31Zm-152.164-6.6H180.974l7.9-26.39H92.891L106.548,122l28.745-10.892L140.3,90.954l-28.442,10.417L132.786,22.6H81.748l-26.482,99.4L32.986,130.1l-5.205,19.588,22.306-9.263Z" transform="translate(-17.977 -16)" fill="#f2ecec"/>
          </g>
        </g>
      </g>
    </g>
    <path id="Path_22" data-name="Path 22" d="M.44,0H12.848V-2.9H6.424l3.96-3.74a8.4,8.4,0,0,0,1.584-1.914,4.306,4.306,0,0,0,.616-2.244,4.7,4.7,0,0,0-.341-1.727,4.938,4.938,0,0,0-1.012-1.584,4.843,4.843,0,0,0-1.7-1.144,6.284,6.284,0,0,0-2.42-.429,6.158,6.158,0,0,0-3.19.781,5.137,5.137,0,0,0-2,2.112,6.441,6.441,0,0,0-.682,2.981H4.356A3.292,3.292,0,0,1,5.1-12.056a2.449,2.449,0,0,1,1.936-.858,2.041,2.041,0,0,1,1.7.682,2.359,2.359,0,0,1,.539,1.5,3.175,3.175,0,0,1-.484,1.7A11.556,11.556,0,0,1,7.436-7.3ZM16.676-2.42l-1.936,5.7,2.156.506,2.662-5.5ZM27.632.308a7.241,7.241,0,0,0,3-.572,4.525,4.525,0,0,0,1.947-1.584,4.074,4.074,0,0,0,.682-2.332,3.646,3.646,0,0,0-.825-2.486,4.915,4.915,0,0,0-2.255-1.408,4.734,4.734,0,0,0,1.925-1.342,3.063,3.063,0,0,0,.715-2.024,3.945,3.945,0,0,0-.594-2.123A4.2,4.2,0,0,0,30.5-15.092a6.022,6.022,0,0,0-2.739-.572,5.748,5.748,0,0,0-2.684.594A4.455,4.455,0,0,0,23.3-13.442a4.391,4.391,0,0,0-.638,2.354h2.926a1.822,1.822,0,0,1,.627-1.419,2.241,2.241,0,0,1,1.551-.561,1.882,1.882,0,0,1,1.441.506,1.825,1.825,0,0,1,.473,1.3A2.02,2.02,0,0,1,28.9-9.691a3.185,3.185,0,0,1-2.145.671v2.156a4.172,4.172,0,0,1,2.5.638,2.042,2.042,0,0,1,.869,1.738,1.982,1.982,0,0,1-.671,1.628,2.636,2.636,0,0,1-1.727.55,2.867,2.867,0,0,1-1.826-.605,2.068,2.068,0,0,1-.77-1.727H22A4.672,4.672,0,0,0,22.671-2.2,4.982,4.982,0,0,0,24.607-.385,6.208,6.208,0,0,0,27.632.308ZM35.6-11.374l3.7-.946V0H42.35V-15.664L35.6-14.212ZM45.694-7.7a10.466,10.466,0,0,0,.781,4.224A6.418,6.418,0,0,0,48.653-.715,5.512,5.512,0,0,0,51.9.264a5.585,5.585,0,0,0,3.289-.979,6.271,6.271,0,0,0,2.156-2.761A10.732,10.732,0,0,0,58.1-7.7a10.814,10.814,0,0,0-.759-4.235A6.19,6.19,0,0,0,55.187-14.7a5.63,5.63,0,0,0-3.289-.968,5.556,5.556,0,0,0-3.245.968,6.333,6.333,0,0,0-2.178,2.761A10.545,10.545,0,0,0,45.694-7.7Zm3.08,0a8.715,8.715,0,0,1,.385-2.728,4.2,4.2,0,0,1,1.089-1.815,2.356,2.356,0,0,1,1.65-.649,2.356,2.356,0,0,1,1.65.649,4.2,4.2,0,0,1,1.089,1.815A8.715,8.715,0,0,1,55.022-7.7a8.741,8.741,0,0,1-.385,2.717,4.2,4.2,0,0,1-1.089,1.826,2.356,2.356,0,0,1-1.65.649,2.356,2.356,0,0,1-1.65-.649,4.2,4.2,0,0,1-1.089-1.826A8.741,8.741,0,0,1,48.774-7.7Zm13,5.28-1.936,5.7L62,3.784l2.662-5.5Zm5.06-5.28a10.465,10.465,0,0,0,.781,4.224A6.418,6.418,0,0,0,69.795-.715,5.512,5.512,0,0,0,73.04.264a5.585,5.585,0,0,0,3.289-.979,6.272,6.272,0,0,0,2.156-2.761A10.732,10.732,0,0,0,79.244-7.7a10.814,10.814,0,0,0-.759-4.235A6.19,6.19,0,0,0,76.329-14.7a5.63,5.63,0,0,0-3.289-.968,5.556,5.556,0,0,0-3.245.968,6.333,6.333,0,0,0-2.178,2.761A10.545,10.545,0,0,0,66.836-7.7Zm3.08,0a8.715,8.715,0,0,1,.385-2.728,4.2,4.2,0,0,1,1.089-1.815,2.356,2.356,0,0,1,1.65-.649,2.356,2.356,0,0,1,1.65.649,4.2,4.2,0,0,1,1.089,1.815A8.715,8.715,0,0,1,76.164-7.7a8.741,8.741,0,0,1-.385,2.717A4.2,4.2,0,0,1,74.69-3.157a2.356,2.356,0,0,1-1.65.649,2.356,2.356,0,0,1-1.65-.649A4.2,4.2,0,0,1,70.3-4.983,8.741,8.741,0,0,1,69.916-7.7Zm11.066,0a10.465,10.465,0,0,0,.781,4.224A6.418,6.418,0,0,0,83.941-.715a5.512,5.512,0,0,0,3.245.979,5.585,5.585,0,0,0,3.289-.979,6.272,6.272,0,0,0,2.156-2.761A10.732,10.732,0,0,0,93.39-7.7a10.814,10.814,0,0,0-.759-4.235A6.19,6.19,0,0,0,90.475-14.7a5.63,5.63,0,0,0-3.289-.968,5.556,5.556,0,0,0-3.245.968,6.333,6.333,0,0,0-2.178,2.761A10.545,10.545,0,0,0,80.982-7.7Zm3.08,0a8.715,8.715,0,0,1,.385-2.728,4.2,4.2,0,0,1,1.089-1.815,2.356,2.356,0,0,1,1.65-.649,2.356,2.356,0,0,1,1.65.649,4.2,4.2,0,0,1,1.089,1.815A8.715,8.715,0,0,1,90.31-7.7a8.741,8.741,0,0,1-.385,2.717,4.2,4.2,0,0,1-1.089,1.826,2.356,2.356,0,0,1-1.65.649,2.356,2.356,0,0,1-1.65-.649,4.2,4.2,0,0,1-1.089-1.826A8.741,8.741,0,0,1,84.062-7.7Zm11.066,0a10.465,10.465,0,0,0,.781,4.224A6.418,6.418,0,0,0,98.087-.715a5.512,5.512,0,0,0,3.245.979,5.585,5.585,0,0,0,3.289-.979,6.271,6.271,0,0,0,2.156-2.761,10.732,10.732,0,0,0,.759-4.224,10.814,10.814,0,0,0-.759-4.235,6.19,6.19,0,0,0-2.156-2.761,5.63,5.63,0,0,0-3.289-.968,5.556,5.556,0,0,0-3.245.968,6.333,6.333,0,0,0-2.178,2.761A10.545,10.545,0,0,0,95.128-7.7Zm3.08,0a8.715,8.715,0,0,1,.385-2.728,4.2,4.2,0,0,1,1.089-1.815,2.356,2.356,0,0,1,1.65-.649,2.356,2.356,0,0,1,1.65.649,4.2,4.2,0,0,1,1.089,1.815,8.715,8.715,0,0,1,.385,2.728,8.741,8.741,0,0,1-.385,2.717,4.2,4.2,0,0,1-1.089,1.826,2.356,2.356,0,0,1-1.65.649,2.356,2.356,0,0,1-1.65-.649,4.2,4.2,0,0,1-1.089-1.826A8.741,8.741,0,0,1,98.208-7.7Z" transform="translate(714 1541)" fill="#34364d"/>
    <path id="Path_23" data-name="Path 23" d="M.44,0H12.848V-2.9H6.424l3.96-3.74a8.4,8.4,0,0,0,1.584-1.914,4.306,4.306,0,0,0,.616-2.244,4.7,4.7,0,0,0-.341-1.727,4.938,4.938,0,0,0-1.012-1.584,4.843,4.843,0,0,0-1.7-1.144,6.284,6.284,0,0,0-2.42-.429,6.158,6.158,0,0,0-3.19.781,5.137,5.137,0,0,0-2,2.112,6.441,6.441,0,0,0-.682,2.981H4.356A3.292,3.292,0,0,1,5.1-12.056a2.449,2.449,0,0,1,1.936-.858,2.041,2.041,0,0,1,1.7.682,2.359,2.359,0,0,1,.539,1.5,3.175,3.175,0,0,1-.484,1.7A11.556,11.556,0,0,1,7.436-7.3ZM16.676-2.42l-1.936,5.7,2.156.506,2.662-5.5Zm5.764-8.954,3.7-.946V0h3.058V-15.664L22.44-14.212ZM32.538-7.7a10.466,10.466,0,0,0,.781,4.224A6.418,6.418,0,0,0,35.5-.715a5.512,5.512,0,0,0,3.245.979,5.585,5.585,0,0,0,3.289-.979,6.271,6.271,0,0,0,2.156-2.761A10.732,10.732,0,0,0,44.946-7.7a10.814,10.814,0,0,0-.759-4.235A6.19,6.19,0,0,0,42.031-14.7a5.63,5.63,0,0,0-3.289-.968A5.556,5.556,0,0,0,35.5-14.7a6.333,6.333,0,0,0-2.178,2.761A10.545,10.545,0,0,0,32.538-7.7Zm3.08,0A8.715,8.715,0,0,1,36-10.428a4.2,4.2,0,0,1,1.089-1.815,2.356,2.356,0,0,1,1.65-.649,2.356,2.356,0,0,1,1.65.649,4.2,4.2,0,0,1,1.089,1.815A8.715,8.715,0,0,1,41.866-7.7a8.741,8.741,0,0,1-.385,2.717,4.2,4.2,0,0,1-1.089,1.826,2.356,2.356,0,0,1-1.65.649,2.356,2.356,0,0,1-1.65-.649A4.2,4.2,0,0,1,36-4.983,8.741,8.741,0,0,1,35.618-7.7Zm11.066,0a10.466,10.466,0,0,0,.781,4.224A6.418,6.418,0,0,0,49.643-.715a5.512,5.512,0,0,0,3.245.979,5.585,5.585,0,0,0,3.289-.979,6.271,6.271,0,0,0,2.156-2.761A10.732,10.732,0,0,0,59.092-7.7a10.814,10.814,0,0,0-.759-4.235A6.19,6.19,0,0,0,56.177-14.7a5.63,5.63,0,0,0-3.289-.968,5.556,5.556,0,0,0-3.245.968,6.333,6.333,0,0,0-2.178,2.761A10.545,10.545,0,0,0,46.684-7.7Zm3.08,0a8.715,8.715,0,0,1,.385-2.728,4.2,4.2,0,0,1,1.089-1.815,2.356,2.356,0,0,1,1.65-.649,2.356,2.356,0,0,1,1.65.649,4.2,4.2,0,0,1,1.089,1.815A8.715,8.715,0,0,1,56.012-7.7a8.741,8.741,0,0,1-.385,2.717,4.2,4.2,0,0,1-1.089,1.826,2.356,2.356,0,0,1-1.65.649,2.356,2.356,0,0,1-1.65-.649,4.2,4.2,0,0,1-1.089-1.826A8.741,8.741,0,0,1,49.764-7.7Zm13,5.28-1.936,5.7,2.156.506,2.662-5.5Zm5.06-5.28a10.465,10.465,0,0,0,.781,4.224A6.418,6.418,0,0,0,70.785-.715,5.512,5.512,0,0,0,74.03.264a5.585,5.585,0,0,0,3.289-.979,6.271,6.271,0,0,0,2.156-2.761A10.732,10.732,0,0,0,80.234-7.7a10.814,10.814,0,0,0-.759-4.235A6.19,6.19,0,0,0,77.319-14.7a5.63,5.63,0,0,0-3.289-.968,5.556,5.556,0,0,0-3.245.968,6.333,6.333,0,0,0-2.178,2.761A10.545,10.545,0,0,0,67.826-7.7Zm3.08,0a8.715,8.715,0,0,1,.385-2.728,4.2,4.2,0,0,1,1.089-1.815,2.356,2.356,0,0,1,1.65-.649,2.356,2.356,0,0,1,1.65.649,4.2,4.2,0,0,1,1.089,1.815A8.715,8.715,0,0,1,77.154-7.7a8.741,8.741,0,0,1-.385,2.717A4.2,4.2,0,0,1,75.68-3.157a2.356,2.356,0,0,1-1.65.649,2.356,2.356,0,0,1-1.65-.649,4.2,4.2,0,0,1-1.089-1.826A8.741,8.741,0,0,1,70.906-7.7Zm11.066,0a10.465,10.465,0,0,0,.781,4.224A6.418,6.418,0,0,0,84.931-.715a5.512,5.512,0,0,0,3.245.979,5.585,5.585,0,0,0,3.289-.979,6.272,6.272,0,0,0,2.156-2.761A10.732,10.732,0,0,0,94.38-7.7a10.814,10.814,0,0,0-.759-4.235A6.19,6.19,0,0,0,91.465-14.7a5.63,5.63,0,0,0-3.289-.968,5.556,5.556,0,0,0-3.245.968,6.333,6.333,0,0,0-2.178,2.761A10.545,10.545,0,0,0,81.972-7.7Zm3.08,0a8.715,8.715,0,0,1,.385-2.728,4.2,4.2,0,0,1,1.089-1.815,2.356,2.356,0,0,1,1.65-.649,2.356,2.356,0,0,1,1.65.649,4.2,4.2,0,0,1,1.089,1.815A8.715,8.715,0,0,1,91.3-7.7a8.741,8.741,0,0,1-.385,2.717,4.2,4.2,0,0,1-1.089,1.826,2.356,2.356,0,0,1-1.65.649,2.356,2.356,0,0,1-1.65-.649,4.2,4.2,0,0,1-1.089-1.826A8.741,8.741,0,0,1,85.052-7.7Zm11.066,0A10.465,10.465,0,0,0,96.9-3.476,6.418,6.418,0,0,0,99.077-.715a5.512,5.512,0,0,0,3.245.979,5.585,5.585,0,0,0,3.289-.979,6.272,6.272,0,0,0,2.156-2.761,10.732,10.732,0,0,0,.759-4.224,10.814,10.814,0,0,0-.759-4.235,6.19,6.19,0,0,0-2.156-2.761,5.63,5.63,0,0,0-3.289-.968,5.556,5.556,0,0,0-3.245.968A6.333,6.333,0,0,0,96.9-11.935,10.545,10.545,0,0,0,96.118-7.7Zm3.08,0a8.715,8.715,0,0,1,.385-2.728,4.2,4.2,0,0,1,1.089-1.815,2.356,2.356,0,0,1,1.65-.649,2.356,2.356,0,0,1,1.65.649,4.2,4.2,0,0,1,1.089,1.815,8.715,8.715,0,0,1,.385,2.728,8.741,8.741,0,0,1-.385,2.717,4.2,4.2,0,0,1-1.089,1.826,2.356,2.356,0,0,1-1.65.649,2.356,2.356,0,0,1-1.65-.649,4.2,4.2,0,0,1-1.089-1.826A8.741,8.741,0,0,1,99.2-7.7Z" transform="translate(867 1744)" fill="#34364d"/>
    <path id="Path_21" data-name="Path 21" d="M.44,0H12.848V-2.9H6.424l3.96-3.74a8.4,8.4,0,0,0,1.584-1.914,4.306,4.306,0,0,0,.616-2.244,4.7,4.7,0,0,0-.341-1.727,4.938,4.938,0,0,0-1.012-1.584,4.843,4.843,0,0,0-1.7-1.144,6.284,6.284,0,0,0-2.42-.429,6.158,6.158,0,0,0-3.19.781,5.137,5.137,0,0,0-2,2.112,6.441,6.441,0,0,0-.682,2.981H4.356A3.292,3.292,0,0,1,5.1-12.056a2.449,2.449,0,0,1,1.936-.858,2.041,2.041,0,0,1,1.7.682,2.359,2.359,0,0,1,.539,1.5,3.175,3.175,0,0,1-.484,1.7A11.556,11.556,0,0,1,7.436-7.3ZM16.676-2.42l-1.936,5.7,2.156.506,2.662-5.5Zm16.94-2.552a5.454,5.454,0,0,0-.638-2.717,4.573,4.573,0,0,0-1.694-1.749,4.5,4.5,0,0,0-2.31-.616,12.29,12.29,0,0,0-1.287.066,4.184,4.184,0,0,0-1.2.308l.748-2.948H33.4V-15.4h-8.4L22.88-6.71A7.771,7.771,0,0,1,25.1-7.59a9.829,9.829,0,0,1,2-.22,3.865,3.865,0,0,1,1.518.3,2.772,2.772,0,0,1,1.144.869,2.241,2.241,0,0,1,.44,1.408,2.353,2.353,0,0,1-.814,1.925A3.5,3.5,0,0,1,27.1-2.64a4.557,4.557,0,0,1-2.057-.539,6.486,6.486,0,0,1-1.859-1.4l-1.5,2.464A9.911,9.911,0,0,0,24.1-.451a7.86,7.86,0,0,0,3.553.715,7.739,7.739,0,0,0,2.178-.308A5.867,5.867,0,0,0,31.746-1,4.713,4.713,0,0,0,33.11-2.64,5.062,5.062,0,0,0,33.616-4.972ZM34.936,0H47.344V-2.9H40.92l3.96-3.74a8.4,8.4,0,0,0,1.584-1.914A4.306,4.306,0,0,0,47.08-10.8a4.7,4.7,0,0,0-.341-1.727,4.938,4.938,0,0,0-1.012-1.584,4.843,4.843,0,0,0-1.7-1.144,6.284,6.284,0,0,0-2.42-.429,6.158,6.158,0,0,0-3.19.781,5.137,5.137,0,0,0-2,2.112,6.441,6.441,0,0,0-.682,2.981h3.124a3.292,3.292,0,0,1,.748-2.244,2.449,2.449,0,0,1,1.936-.858,2.041,2.041,0,0,1,1.7.682,2.359,2.359,0,0,1,.539,1.5,3.175,3.175,0,0,1-.484,1.7A11.556,11.556,0,0,1,41.932-7.3Zm14.3-7.7a10.466,10.466,0,0,0,.781,4.224A6.418,6.418,0,0,0,52.195-.715,5.512,5.512,0,0,0,55.44.264a5.585,5.585,0,0,0,3.289-.979,6.271,6.271,0,0,0,2.156-2.761A10.732,10.732,0,0,0,61.644-7.7a10.814,10.814,0,0,0-.759-4.235A6.19,6.19,0,0,0,58.729-14.7a5.63,5.63,0,0,0-3.289-.968,5.556,5.556,0,0,0-3.245.968,6.333,6.333,0,0,0-2.178,2.761A10.545,10.545,0,0,0,49.236-7.7Zm3.08,0a8.715,8.715,0,0,1,.385-2.728,4.2,4.2,0,0,1,1.089-1.815,2.356,2.356,0,0,1,1.65-.649,2.356,2.356,0,0,1,1.65.649,4.2,4.2,0,0,1,1.089,1.815A8.715,8.715,0,0,1,58.564-7.7a8.741,8.741,0,0,1-.385,2.717A4.2,4.2,0,0,1,57.09-3.157a2.356,2.356,0,0,1-1.65.649,2.356,2.356,0,0,1-1.65-.649A4.2,4.2,0,0,1,52.7-4.983,8.741,8.741,0,0,1,52.316-7.7Zm13,5.28-1.936,5.7,2.156.506,2.662-5.5Zm5.06-5.28a10.465,10.465,0,0,0,.781,4.224A6.418,6.418,0,0,0,73.337-.715a5.512,5.512,0,0,0,3.245.979,5.585,5.585,0,0,0,3.289-.979,6.271,6.271,0,0,0,2.156-2.761A10.732,10.732,0,0,0,82.786-7.7a10.814,10.814,0,0,0-.759-4.235A6.19,6.19,0,0,0,79.871-14.7a5.63,5.63,0,0,0-3.289-.968,5.556,5.556,0,0,0-3.245.968,6.333,6.333,0,0,0-2.178,2.761A10.545,10.545,0,0,0,70.378-7.7Zm3.08,0a8.715,8.715,0,0,1,.385-2.728,4.2,4.2,0,0,1,1.089-1.815,2.356,2.356,0,0,1,1.65-.649,2.356,2.356,0,0,1,1.65.649,4.2,4.2,0,0,1,1.089,1.815A8.715,8.715,0,0,1,79.706-7.7a8.741,8.741,0,0,1-.385,2.717,4.2,4.2,0,0,1-1.089,1.826,2.356,2.356,0,0,1-1.65.649,2.356,2.356,0,0,1-1.65-.649,4.2,4.2,0,0,1-1.089-1.826A8.741,8.741,0,0,1,73.458-7.7Zm11.066,0a10.465,10.465,0,0,0,.781,4.224A6.418,6.418,0,0,0,87.483-.715a5.512,5.512,0,0,0,3.245.979,5.585,5.585,0,0,0,3.289-.979,6.271,6.271,0,0,0,2.156-2.761A10.732,10.732,0,0,0,96.932-7.7a10.814,10.814,0,0,0-.759-4.235A6.19,6.19,0,0,0,94.017-14.7a5.63,5.63,0,0,0-3.289-.968,5.556,5.556,0,0,0-3.245.968,6.333,6.333,0,0,0-2.178,2.761A10.545,10.545,0,0,0,84.524-7.7Zm3.08,0a8.715,8.715,0,0,1,.385-2.728,4.2,4.2,0,0,1,1.089-1.815,2.356,2.356,0,0,1,1.65-.649,2.356,2.356,0,0,1,1.65.649,4.2,4.2,0,0,1,1.089,1.815A8.715,8.715,0,0,1,93.852-7.7a8.741,8.741,0,0,1-.385,2.717,4.2,4.2,0,0,1-1.089,1.826,2.356,2.356,0,0,1-1.65.649,2.356,2.356,0,0,1-1.65-.649,4.2,4.2,0,0,1-1.089-1.826A8.741,8.741,0,0,1,87.6-7.7Zm11.066,0a10.465,10.465,0,0,0,.781,4.224,6.418,6.418,0,0,0,2.178,2.761,5.512,5.512,0,0,0,3.245.979,5.585,5.585,0,0,0,3.289-.979,6.272,6.272,0,0,0,2.156-2.761,10.732,10.732,0,0,0,.759-4.224,10.814,10.814,0,0,0-.759-4.235,6.19,6.19,0,0,0-2.156-2.761,5.63,5.63,0,0,0-3.289-.968,5.556,5.556,0,0,0-3.245.968,6.333,6.333,0,0,0-2.178,2.761A10.545,10.545,0,0,0,98.67-7.7Zm3.08,0a8.715,8.715,0,0,1,.385-2.728,4.2,4.2,0,0,1,1.089-1.815,2.356,2.356,0,0,1,1.65-.649,2.356,2.356,0,0,1,1.65.649,4.2,4.2,0,0,1,1.089,1.815A8.715,8.715,0,0,1,108-7.7a8.741,8.741,0,0,1-.385,2.717,4.2,4.2,0,0,1-1.089,1.826,2.356,2.356,0,0,1-1.65.649,2.356,2.356,0,0,1-1.65-.649,4.2,4.2,0,0,1-1.089-1.826A8.741,8.741,0,0,1,101.75-7.7Z" transform="translate(866 1344)" fill="#34364d"/>
    <path id="Path_24" data-name="Path 24" d="M1.584-11.374l3.7-.946V0H8.338V-15.664L1.584-14.212ZM13.618-2.42l-1.936,5.7,2.156.506,2.662-5.5Zm8.47-2.222a2.156,2.156,0,0,1,.33-1.166,2.434,2.434,0,0,1,.869-.836,2.29,2.29,0,0,1,1.155-.308,2.231,2.231,0,0,1,1.144.308,2.463,2.463,0,0,1,.858.836,2.156,2.156,0,0,1,.33,1.166,2.153,2.153,0,0,1-.7,1.727,2.423,2.423,0,0,1-1.628.605A2.465,2.465,0,0,1,22.8-2.915,2.137,2.137,0,0,1,22.088-4.642Zm.418-6.71a1.965,1.965,0,0,1,.539-1.419,1.851,1.851,0,0,1,1.4-.561,1.851,1.851,0,0,1,1.4.561,1.965,1.965,0,0,1,.539,1.419,1.851,1.851,0,0,1-.561,1.4,1.909,1.909,0,0,1-1.375.539,1.909,1.909,0,0,1-1.375-.539A1.851,1.851,0,0,1,22.506-11.352Zm-2.992-.33a3.532,3.532,0,0,0,.649,2.156,4.373,4.373,0,0,0,1.661,1.364A5.21,5.21,0,0,0,19.8-6.7a3.743,3.743,0,0,0-.836,2.519,3.816,3.816,0,0,0,.759,2.354,5.038,5.038,0,0,0,2,1.573,6.528,6.528,0,0,0,2.717.561,6.528,6.528,0,0,0,2.717-.561A4.953,4.953,0,0,0,29.15-1.826,3.853,3.853,0,0,0,29.9-4.18,3.775,3.775,0,0,0,29.073-6.7,5.121,5.121,0,0,0,27.06-8.162a4.284,4.284,0,0,0,1.65-1.364,3.575,3.575,0,0,0,.638-2.156,3.515,3.515,0,0,0-.66-2.134,4.321,4.321,0,0,0-1.771-1.4,6.015,6.015,0,0,0-2.475-.495,6.093,6.093,0,0,0-2.486.495,4.308,4.308,0,0,0-1.782,1.4A3.515,3.515,0,0,0,19.514-11.682ZM37.84-.044,42.5-6.16a8.984,8.984,0,0,0,1.111-1.815,5.012,5.012,0,0,0,.451-2.123,5.555,5.555,0,0,0-.8-3.058,5.16,5.16,0,0,0-2.156-1.9,6.853,6.853,0,0,0-3-.649,6.853,6.853,0,0,0-3,.649,5.16,5.16,0,0,0-2.156,1.9,5.555,5.555,0,0,0-.8,3.058,4.983,4.983,0,0,0,.682,2.64A4.933,4.933,0,0,0,34.6-5.709a4.461,4.461,0,0,0,2.255.627,6.432,6.432,0,0,0,.792-.044A2.432,2.432,0,0,0,38.3-5.3L33.836-.044Zm3.1-10.054a2.888,2.888,0,0,1-.8,2.1,2.719,2.719,0,0,1-2.035.825A2.729,2.729,0,0,1,36.08-8a2.867,2.867,0,0,1-.814-2.1,2.784,2.784,0,0,1,.814-2.09A2.788,2.788,0,0,1,38.1-12.98a2.778,2.778,0,0,1,2.035.792A2.8,2.8,0,0,1,40.942-10.1Zm5.082,2.4a10.466,10.466,0,0,0,.781,4.224A6.418,6.418,0,0,0,48.983-.715a5.512,5.512,0,0,0,3.245.979,5.585,5.585,0,0,0,3.289-.979,6.271,6.271,0,0,0,2.156-2.761A10.732,10.732,0,0,0,58.432-7.7a10.814,10.814,0,0,0-.759-4.235A6.19,6.19,0,0,0,55.517-14.7a5.63,5.63,0,0,0-3.289-.968,5.556,5.556,0,0,0-3.245.968,6.333,6.333,0,0,0-2.178,2.761A10.545,10.545,0,0,0,46.024-7.7Zm3.08,0a8.715,8.715,0,0,1,.385-2.728,4.2,4.2,0,0,1,1.089-1.815,2.356,2.356,0,0,1,1.65-.649,2.356,2.356,0,0,1,1.65.649,4.2,4.2,0,0,1,1.089,1.815A8.715,8.715,0,0,1,55.352-7.7a8.741,8.741,0,0,1-.385,2.717,4.2,4.2,0,0,1-1.089,1.826,2.356,2.356,0,0,1-1.65.649,2.356,2.356,0,0,1-1.65-.649,4.2,4.2,0,0,1-1.089-1.826A8.741,8.741,0,0,1,49.1-7.7Zm13,5.28-1.936,5.7,2.156.506,2.662-5.5Zm5.06-5.28a10.465,10.465,0,0,0,.781,4.224A6.418,6.418,0,0,0,70.125-.715,5.512,5.512,0,0,0,73.37.264a5.585,5.585,0,0,0,3.289-.979,6.272,6.272,0,0,0,2.156-2.761A10.732,10.732,0,0,0,79.574-7.7a10.814,10.814,0,0,0-.759-4.235A6.19,6.19,0,0,0,76.659-14.7a5.63,5.63,0,0,0-3.289-.968,5.556,5.556,0,0,0-3.245.968,6.333,6.333,0,0,0-2.178,2.761A10.545,10.545,0,0,0,67.166-7.7Zm3.08,0a8.715,8.715,0,0,1,.385-2.728,4.2,4.2,0,0,1,1.089-1.815,2.356,2.356,0,0,1,1.65-.649,2.356,2.356,0,0,1,1.65.649,4.2,4.2,0,0,1,1.089,1.815A8.715,8.715,0,0,1,76.494-7.7a8.741,8.741,0,0,1-.385,2.717A4.2,4.2,0,0,1,75.02-3.157a2.356,2.356,0,0,1-1.65.649,2.356,2.356,0,0,1-1.65-.649,4.2,4.2,0,0,1-1.089-1.826A8.741,8.741,0,0,1,70.246-7.7Zm11.066,0a10.465,10.465,0,0,0,.781,4.224A6.418,6.418,0,0,0,84.271-.715a5.512,5.512,0,0,0,3.245.979,5.585,5.585,0,0,0,3.289-.979,6.272,6.272,0,0,0,2.156-2.761A10.732,10.732,0,0,0,93.72-7.7a10.814,10.814,0,0,0-.759-4.235A6.19,6.19,0,0,0,90.805-14.7a5.63,5.63,0,0,0-3.289-.968,5.556,5.556,0,0,0-3.245.968,6.333,6.333,0,0,0-2.178,2.761A10.545,10.545,0,0,0,81.312-7.7Zm3.08,0a8.715,8.715,0,0,1,.385-2.728,4.2,4.2,0,0,1,1.089-1.815,2.356,2.356,0,0,1,1.65-.649,2.356,2.356,0,0,1,1.65.649,4.2,4.2,0,0,1,1.089,1.815A8.715,8.715,0,0,1,90.64-7.7a8.741,8.741,0,0,1-.385,2.717,4.2,4.2,0,0,1-1.089,1.826,2.356,2.356,0,0,1-1.65.649,2.356,2.356,0,0,1-1.65-.649,4.2,4.2,0,0,1-1.089-1.826A8.741,8.741,0,0,1,84.392-7.7Zm11.066,0a10.465,10.465,0,0,0,.781,4.224A6.418,6.418,0,0,0,98.417-.715a5.512,5.512,0,0,0,3.245.979,5.585,5.585,0,0,0,3.289-.979,6.271,6.271,0,0,0,2.156-2.761,10.732,10.732,0,0,0,.759-4.224,10.814,10.814,0,0,0-.759-4.235,6.19,6.19,0,0,0-2.156-2.761,5.63,5.63,0,0,0-3.289-.968,5.556,5.556,0,0,0-3.245.968,6.333,6.333,0,0,0-2.178,2.761A10.545,10.545,0,0,0,95.458-7.7Zm3.08,0a8.715,8.715,0,0,1,.385-2.728,4.2,4.2,0,0,1,1.089-1.815,2.356,2.356,0,0,1,1.65-.649,2.356,2.356,0,0,1,1.65.649,4.2,4.2,0,0,1,1.089,1.815,8.715,8.715,0,0,1,.385,2.728,8.741,8.741,0,0,1-.385,2.717,4.2,4.2,0,0,1-1.089,1.826,2.356,2.356,0,0,1-1.65.649,2.356,2.356,0,0,1-1.65-.649,4.2,4.2,0,0,1-1.089-1.826A8.741,8.741,0,0,1,98.538-7.7Z" transform="translate(1022 1541)" fill="#34364d"/>
  </g>
</svg>
