<svg xmlns="http://www.w3.org/2000/svg" width="598" height="598" viewBox="0 0 598 598">
  <g id="Group_34" data-name="Group 34" transform="translate(-48 -421)">
    <g id="Bullseye-Gradient" transform="translate(251 624)" opacity="0.41">
      <rect id="Rectangle_7" data-name="Rectangle 7" width="394" height="394" transform="translate(-101 -101)" fill="#222338"/>
      <circle id="Ellipse_17" data-name="Ellipse 17" cx="299" cy="299" r="299" transform="translate(-203 -203)" fill="#171833"/>
    </g>
    <g id="Group_2" data-name="Group 2" transform="translate(71 444)">
      <circle id="Ellipse_1" data-name="Ellipse 1" cx="276" cy="276" r="276" fill="#ffcd3b"/>
    </g>
    <circle id="Ellipse_2" data-name="Ellipse 2" cx="250" cy="250" r="250" transform="translate(97 471)" fill="#fff"/>
    <rect id="Rectangle_2" data-name="Rectangle 2" width="27" height="7" transform="translate(96 717)" fill="#ffcd3b"/>
    <rect id="Rectangle_3" data-name="Rectangle 3" width="27" height="7" transform="translate(571 717)" fill="#ffcd3b"/>
    <rect id="Rectangle_4" data-name="Rectangle 4" width="27.423" height="7.077" transform="translate(350.077 470.212) rotate(90)" fill="#ffcd3b"/>
    <rect id="Rectangle_5" data-name="Rectangle 5" width="27.423" height="7.077" transform="translate(350.077 944.365) rotate(90)" fill="#ffcd3b"/>
    <g id="Layer_2" data-name="Layer 2" transform="translate(242.074 568.343)">
      <g id="Layer_1" data-name="Layer 1">
        <path id="Path_1" data-name="Path 1" d="M218.941,116.641c4.78-30.594-19.121-46.848-52.584-57.364l10.517-41.111-24.858-6.693-9.561,40.155c-6.692-1.912-13.385-2.868-20.078-4.78L132.894,6.693,108.036,0,97.519,41.111c-5.736-.956-11.473-2.868-16.253-3.824l-34.419-8.6-6.693,26.77,18.165,4.78A13.1,13.1,0,0,1,69.793,74.574L58.32,121.421a3.537,3.537,0,0,1,2.868.956c-.956,0-1.912-.956-2.868-.956L42.067,187.39a9.561,9.561,0,0,1-11.473,5.736l-18.165-4.78L0,217.029l32.506,8.6c6.693,1.912,12.429,2.868,18.165,4.78L40.155,272.481l19.6,5.258v-.478l5.736,1.912,10.517-41.111a152.975,152.975,0,0,1,20.078,4.78L85.09,283.954l24.858,7.649,10.517-42.067c43.023,7.649,75.53,4.78,88.915-34.419,7.84-21.416,4.972-36.713-4.78-47.8-1.052-1.147-2.2-2.295-3.346-3.346a70.749,70.749,0,0,0-13.863-8.987h.574l-1.53-.86a39.964,39.964,0,0,0,32.506-37.478Zm-57.364,81.266h0c-8.509,30.212-60.137,13.385-77.155,9.561l13.385-55.452c14.532,4.111,55.93,10.23,63.579,31.742a19.79,19.79,0,0,1,1.147,4.685A23.328,23.328,0,0,1,161.576,197.907Zm7.649-81.266c-6.693,28.682-50.672,14.341-65.013,10.517l12.429-50.672c3.729.956,9.561,2.2,16.062,3.92,18.548,4.972,42.163,14.341,36.522,36.235Z" fill="#f5f0f0"/>
      </g>
    </g>
    <path id="Path_7" data-name="Path 7" d="M12.76-4.972a5.062,5.062,0,0,1-.506,2.332A4.713,4.713,0,0,1,10.89-1a5.867,5.867,0,0,1-1.914.957A7.739,7.739,0,0,1,6.8.264,7.86,7.86,0,0,1,3.245-.451,9.911,9.911,0,0,1,.836-2.112l1.5-2.464a6.486,6.486,0,0,0,1.859,1.4,4.557,4.557,0,0,0,2.057.539,3.5,3.5,0,0,0,2.288-.671A2.353,2.353,0,0,0,9.35-5.236a2.241,2.241,0,0,0-.44-1.408,2.772,2.772,0,0,0-1.144-.869,3.865,3.865,0,0,0-1.518-.3,9.829,9.829,0,0,0-2,.22,7.771,7.771,0,0,0-2.222.88L4.136-15.4h8.4v2.772H6.38L5.632-9.68a4.184,4.184,0,0,1,1.2-.308,12.29,12.29,0,0,1,1.287-.066,4.5,4.5,0,0,1,2.31.616,4.573,4.573,0,0,1,1.694,1.749A5.454,5.454,0,0,1,12.76-4.972Zm1.54-7.48V-15.4H26.312L18.92,0H15.51l6.16-12.452Zm12.738,0V-15.4H39.05L31.658,0h-3.41l6.16-12.452ZM39.072-2.42l2.882.7-2.662,5.5-2.156-.506Zm16.94-2.552a5.062,5.062,0,0,1-.506,2.332A4.713,4.713,0,0,1,54.142-1a5.867,5.867,0,0,1-1.914.957A7.739,7.739,0,0,1,50.05.264,7.86,7.86,0,0,1,46.5-.451a9.911,9.911,0,0,1-2.409-1.661l1.5-2.464a6.486,6.486,0,0,0,1.859,1.4A4.557,4.557,0,0,0,49.5-2.64a3.5,3.5,0,0,0,2.288-.671A2.353,2.353,0,0,0,52.6-5.236a2.241,2.241,0,0,0-.44-1.408,2.772,2.772,0,0,0-1.144-.869,3.865,3.865,0,0,0-1.518-.3,9.829,9.829,0,0,0-2,.22,7.771,7.771,0,0,0-2.222.88l2.112-8.69h8.4v2.772h-6.16L48.884-9.68a4.184,4.184,0,0,1,1.2-.308,12.29,12.29,0,0,1,1.287-.066,4.5,4.5,0,0,1,2.31.616,4.573,4.573,0,0,1,1.694,1.749A5.454,5.454,0,0,1,56.012-4.972ZM57.772-7.7a10.545,10.545,0,0,1,.781-4.235A6.333,6.333,0,0,1,60.731-14.7a5.556,5.556,0,0,1,3.245-.968,5.63,5.63,0,0,1,3.289.968,6.19,6.19,0,0,1,2.156,2.761A10.814,10.814,0,0,1,70.18-7.7a10.732,10.732,0,0,1-.759,4.224A6.271,6.271,0,0,1,67.265-.715a5.585,5.585,0,0,1-3.289.979,5.512,5.512,0,0,1-3.245-.979,6.418,6.418,0,0,1-2.178-2.761A10.466,10.466,0,0,1,57.772-7.7Zm3.08,0a8.741,8.741,0,0,0,.385,2.717,4.2,4.2,0,0,0,1.089,1.826,2.356,2.356,0,0,0,1.65.649,2.356,2.356,0,0,0,1.65-.649,4.2,4.2,0,0,0,1.089-1.826A8.741,8.741,0,0,0,67.1-7.7a8.715,8.715,0,0,0-.385-2.728,4.2,4.2,0,0,0-1.089-1.815,2.356,2.356,0,0,0-1.65-.649,2.356,2.356,0,0,0-1.65.649,4.2,4.2,0,0,0-1.089,1.815A8.715,8.715,0,0,0,60.852-7.7Zm11.066,0a10.545,10.545,0,0,1,.781-4.235A6.333,6.333,0,0,1,74.877-14.7a5.556,5.556,0,0,1,3.245-.968,5.63,5.63,0,0,1,3.289.968,6.19,6.19,0,0,1,2.156,2.761A10.814,10.814,0,0,1,84.326-7.7a10.732,10.732,0,0,1-.759,4.224A6.271,6.271,0,0,1,81.411-.715a5.585,5.585,0,0,1-3.289.979,5.512,5.512,0,0,1-3.245-.979A6.418,6.418,0,0,1,72.7-3.476,10.466,10.466,0,0,1,71.918-7.7ZM75-7.7a8.741,8.741,0,0,0,.385,2.717,4.2,4.2,0,0,0,1.089,1.826,2.356,2.356,0,0,0,1.65.649,2.356,2.356,0,0,0,1.65-.649,4.2,4.2,0,0,0,1.089-1.826A8.741,8.741,0,0,0,81.246-7.7a8.715,8.715,0,0,0-.385-2.728,4.2,4.2,0,0,0-1.089-1.815,2.356,2.356,0,0,0-1.65-.649,2.356,2.356,0,0,0-1.65.649,4.2,4.2,0,0,0-1.089,1.815A8.715,8.715,0,0,0,75-7.7Z" transform="translate(134 728)" fill="#34364d"/>
    <path id="Path_8" data-name="Path 8" d="M12.76-4.972a5.062,5.062,0,0,1-.506,2.332A4.713,4.713,0,0,1,10.89-1a5.867,5.867,0,0,1-1.914.957A7.739,7.739,0,0,1,6.8.264,7.86,7.86,0,0,1,3.245-.451,9.911,9.911,0,0,1,.836-2.112l1.5-2.464a6.486,6.486,0,0,0,1.859,1.4,4.557,4.557,0,0,0,2.057.539,3.5,3.5,0,0,0,2.288-.671A2.353,2.353,0,0,0,9.35-5.236a2.241,2.241,0,0,0-.44-1.408,2.772,2.772,0,0,0-1.144-.869,3.865,3.865,0,0,0-1.518-.3,9.829,9.829,0,0,0-2,.22,7.771,7.771,0,0,0-2.222.88L4.136-15.4h8.4v2.772H6.38L5.632-9.68a4.184,4.184,0,0,1,1.2-.308,12.29,12.29,0,0,1,1.287-.066,4.5,4.5,0,0,1,2.31.616,4.573,4.573,0,0,1,1.694,1.749A5.454,5.454,0,0,1,12.76-4.972ZM14.08,0l7-7.3A11.557,11.557,0,0,0,22.44-9.031a3.175,3.175,0,0,0,.484-1.7,2.359,2.359,0,0,0-.539-1.5,2.041,2.041,0,0,0-1.7-.682,2.449,2.449,0,0,0-1.936.858A3.292,3.292,0,0,0,18-9.812H14.872a6.441,6.441,0,0,1,.682-2.981,5.137,5.137,0,0,1,2-2.112,6.158,6.158,0,0,1,3.19-.781,6.284,6.284,0,0,1,2.42.429,4.843,4.843,0,0,1,1.7,1.144,4.938,4.938,0,0,1,1.012,1.584,4.7,4.7,0,0,1,.341,1.727,4.307,4.307,0,0,1-.616,2.244,8.4,8.4,0,0,1-1.584,1.914L20.064-2.9h6.424V0ZM40.26-4.972a5.062,5.062,0,0,1-.506,2.332A4.713,4.713,0,0,1,38.39-1a5.867,5.867,0,0,1-1.914.957A7.739,7.739,0,0,1,34.3.264a7.86,7.86,0,0,1-3.553-.715,9.911,9.911,0,0,1-2.409-1.661l1.5-2.464a6.486,6.486,0,0,0,1.859,1.4,4.557,4.557,0,0,0,2.057.539,3.5,3.5,0,0,0,2.288-.671,2.353,2.353,0,0,0,.814-1.925,2.241,2.241,0,0,0-.44-1.408,2.772,2.772,0,0,0-1.144-.869,3.865,3.865,0,0,0-1.518-.3,9.829,9.829,0,0,0-2,.22,7.771,7.771,0,0,0-2.222.88l2.112-8.69h8.4v2.772H33.88L33.132-9.68a4.184,4.184,0,0,1,1.2-.308,12.29,12.29,0,0,1,1.287-.066,4.5,4.5,0,0,1,2.31.616,4.573,4.573,0,0,1,1.694,1.749A5.454,5.454,0,0,1,40.26-4.972Zm3.7,2.552,2.882.7-2.662,5.5L42.02,3.278Zm5.06-5.28a10.545,10.545,0,0,1,.781-4.235A6.333,6.333,0,0,1,51.975-14.7a5.556,5.556,0,0,1,3.245-.968,5.63,5.63,0,0,1,3.289.968,6.19,6.19,0,0,1,2.156,2.761A10.814,10.814,0,0,1,61.424-7.7a10.732,10.732,0,0,1-.759,4.224A6.271,6.271,0,0,1,58.509-.715,5.585,5.585,0,0,1,55.22.264a5.512,5.512,0,0,1-3.245-.979A6.418,6.418,0,0,1,49.8-3.476,10.466,10.466,0,0,1,49.016-7.7Zm3.08,0a8.741,8.741,0,0,0,.385,2.717A4.2,4.2,0,0,0,53.57-3.157a2.356,2.356,0,0,0,1.65.649,2.356,2.356,0,0,0,1.65-.649,4.2,4.2,0,0,0,1.089-1.826A8.741,8.741,0,0,0,58.344-7.7a8.715,8.715,0,0,0-.385-2.728,4.2,4.2,0,0,0-1.089-1.815,2.356,2.356,0,0,0-1.65-.649,2.356,2.356,0,0,0-1.65.649,4.2,4.2,0,0,0-1.089,1.815A8.715,8.715,0,0,0,52.1-7.7Zm11.066,0a10.545,10.545,0,0,1,.781-4.235A6.333,6.333,0,0,1,66.121-14.7a5.556,5.556,0,0,1,3.245-.968,5.63,5.63,0,0,1,3.289.968,6.19,6.19,0,0,1,2.156,2.761A10.814,10.814,0,0,1,75.57-7.7a10.732,10.732,0,0,1-.759,4.224A6.271,6.271,0,0,1,72.655-.715a5.585,5.585,0,0,1-3.289.979,5.512,5.512,0,0,1-3.245-.979,6.418,6.418,0,0,1-2.178-2.761A10.466,10.466,0,0,1,63.162-7.7Zm3.08,0a8.741,8.741,0,0,0,.385,2.717,4.2,4.2,0,0,0,1.089,1.826,2.356,2.356,0,0,0,1.65.649,2.356,2.356,0,0,0,1.65-.649,4.2,4.2,0,0,0,1.089-1.826A8.741,8.741,0,0,0,72.49-7.7a8.716,8.716,0,0,0-.385-2.728,4.2,4.2,0,0,0-1.089-1.815,2.356,2.356,0,0,0-1.65-.649,2.356,2.356,0,0,0-1.65.649,4.2,4.2,0,0,0-1.089,1.815A8.715,8.715,0,0,0,66.242-7.7Zm11.066,0a10.545,10.545,0,0,1,.781-4.235A6.333,6.333,0,0,1,80.267-14.7a5.556,5.556,0,0,1,3.245-.968A5.63,5.63,0,0,1,86.8-14.7a6.19,6.19,0,0,1,2.156,2.761A10.814,10.814,0,0,1,89.716-7.7a10.732,10.732,0,0,1-.759,4.224A6.271,6.271,0,0,1,86.8-.715a5.585,5.585,0,0,1-3.289.979,5.512,5.512,0,0,1-3.245-.979,6.418,6.418,0,0,1-2.178-2.761A10.466,10.466,0,0,1,77.308-7.7Zm3.08,0a8.741,8.741,0,0,0,.385,2.717,4.2,4.2,0,0,0,1.089,1.826,2.356,2.356,0,0,0,1.65.649,2.356,2.356,0,0,0,1.65-.649,4.2,4.2,0,0,0,1.089-1.826A8.741,8.741,0,0,0,86.636-7.7a8.715,8.715,0,0,0-.385-2.728,4.2,4.2,0,0,0-1.089-1.815,2.356,2.356,0,0,0-1.65-.649,2.356,2.356,0,0,0-1.65.649,4.2,4.2,0,0,0-1.089,1.815A8.715,8.715,0,0,0,80.388-7.7Z" transform="translate(302 929)" fill="#34364d"/>
    <path id="Path_6" data-name="Path 6" d="M7.3-15.356h4L6.82-10.076a3.105,3.105,0,0,1,.7-.187,5.445,5.445,0,0,1,.792-.055,4.5,4.5,0,0,1,2.266.616,4.846,4.846,0,0,1,1.76,1.749A5.041,5.041,0,0,1,13.024-5.3a5.555,5.555,0,0,1-.8,3.058,5.16,5.16,0,0,1-2.156,1.9,6.853,6.853,0,0,1-3,.649,6.853,6.853,0,0,1-3-.649A5.16,5.16,0,0,1,1.9-2.244,5.555,5.555,0,0,1,1.1-5.3a5.172,5.172,0,0,1,.44-2.145A8.114,8.114,0,0,1,2.64-9.24ZM4.224-5.3a2.793,2.793,0,0,0,.814,2.079,2.767,2.767,0,0,0,2.024.8,2.758,2.758,0,0,0,2.035-.8A2.813,2.813,0,0,0,9.9-5.3a2.879,2.879,0,0,0-.8-2.112,2.738,2.738,0,0,0-2.035-.814,2.748,2.748,0,0,0-2.024.814A2.857,2.857,0,0,0,4.224-5.3ZM20.878.308a6.208,6.208,0,0,1-3.025-.693A4.982,4.982,0,0,1,15.917-2.2a4.672,4.672,0,0,1-.671-2.442H18.37a2.068,2.068,0,0,0,.77,1.727,2.867,2.867,0,0,0,1.826.605,2.636,2.636,0,0,0,1.727-.55,1.982,1.982,0,0,0,.671-1.628,2.042,2.042,0,0,0-.869-1.738A4.172,4.172,0,0,0,20-6.864V-9.02a3.185,3.185,0,0,0,2.145-.671,2.02,2.02,0,0,0,.781-1.573,1.825,1.825,0,0,0-.473-1.3,1.882,1.882,0,0,0-1.441-.506,2.241,2.241,0,0,0-1.551.561,1.822,1.822,0,0,0-.627,1.419H15.906a4.391,4.391,0,0,1,.638-2.354,4.455,4.455,0,0,1,1.782-1.628,5.748,5.748,0,0,1,2.684-.594,6.022,6.022,0,0,1,2.739.572,4.2,4.2,0,0,1,1.727,1.529,3.945,3.945,0,0,1,.594,2.123,3.063,3.063,0,0,1-.715,2.024A4.734,4.734,0,0,1,23.43-8.074a4.915,4.915,0,0,1,2.255,1.408A3.646,3.646,0,0,1,26.51-4.18a4.074,4.074,0,0,1-.682,2.332A4.525,4.525,0,0,1,23.881-.264,7.241,7.241,0,0,1,20.878.308ZM28.138-7.7a10.545,10.545,0,0,1,.781-4.235A6.333,6.333,0,0,1,31.1-14.7a5.556,5.556,0,0,1,3.245-.968,5.63,5.63,0,0,1,3.289.968,6.19,6.19,0,0,1,2.156,2.761A10.814,10.814,0,0,1,40.546-7.7a10.732,10.732,0,0,1-.759,4.224A6.271,6.271,0,0,1,37.631-.715a5.585,5.585,0,0,1-3.289.979A5.512,5.512,0,0,1,31.1-.715a6.418,6.418,0,0,1-2.178-2.761A10.466,10.466,0,0,1,28.138-7.7Zm3.08,0A8.741,8.741,0,0,0,31.6-4.983a4.2,4.2,0,0,0,1.089,1.826,2.356,2.356,0,0,0,1.65.649,2.356,2.356,0,0,0,1.65-.649,4.2,4.2,0,0,0,1.089-1.826A8.741,8.741,0,0,0,37.466-7.7a8.715,8.715,0,0,0-.385-2.728,4.2,4.2,0,0,0-1.089-1.815,2.356,2.356,0,0,0-1.65-.649,2.356,2.356,0,0,0-1.65.649A4.2,4.2,0,0,0,31.6-10.428,8.715,8.715,0,0,0,31.218-7.7Zm13,5.28,2.882.7-2.662,5.5-2.156-.506ZM49.28-7.7a10.545,10.545,0,0,1,.781-4.235A6.333,6.333,0,0,1,52.239-14.7a5.556,5.556,0,0,1,3.245-.968,5.63,5.63,0,0,1,3.289.968,6.19,6.19,0,0,1,2.156,2.761A10.814,10.814,0,0,1,61.688-7.7a10.732,10.732,0,0,1-.759,4.224A6.271,6.271,0,0,1,58.773-.715a5.585,5.585,0,0,1-3.289.979,5.512,5.512,0,0,1-3.245-.979,6.418,6.418,0,0,1-2.178-2.761A10.466,10.466,0,0,1,49.28-7.7Zm3.08,0a8.741,8.741,0,0,0,.385,2.717,4.2,4.2,0,0,0,1.089,1.826,2.356,2.356,0,0,0,1.65.649,2.356,2.356,0,0,0,1.65-.649,4.2,4.2,0,0,0,1.089-1.826A8.741,8.741,0,0,0,58.608-7.7a8.715,8.715,0,0,0-.385-2.728,4.2,4.2,0,0,0-1.089-1.815,2.356,2.356,0,0,0-1.65-.649,2.356,2.356,0,0,0-1.65.649,4.2,4.2,0,0,0-1.089,1.815A8.715,8.715,0,0,0,52.36-7.7Zm11.066,0a10.545,10.545,0,0,1,.781-4.235A6.333,6.333,0,0,1,66.385-14.7a5.556,5.556,0,0,1,3.245-.968,5.63,5.63,0,0,1,3.289.968,6.19,6.19,0,0,1,2.156,2.761A10.814,10.814,0,0,1,75.834-7.7a10.732,10.732,0,0,1-.759,4.224A6.271,6.271,0,0,1,72.919-.715,5.585,5.585,0,0,1,69.63.264a5.512,5.512,0,0,1-3.245-.979,6.418,6.418,0,0,1-2.178-2.761A10.466,10.466,0,0,1,63.426-7.7Zm3.08,0a8.741,8.741,0,0,0,.385,2.717A4.2,4.2,0,0,0,67.98-3.157a2.356,2.356,0,0,0,1.65.649,2.356,2.356,0,0,0,1.65-.649,4.2,4.2,0,0,0,1.089-1.826A8.741,8.741,0,0,0,72.754-7.7a8.715,8.715,0,0,0-.385-2.728,4.2,4.2,0,0,0-1.089-1.815,2.356,2.356,0,0,0-1.65-.649,2.356,2.356,0,0,0-1.65.649,4.2,4.2,0,0,0-1.089,1.815A8.716,8.716,0,0,0,66.506-7.7Zm11.066,0a10.545,10.545,0,0,1,.781-4.235A6.333,6.333,0,0,1,80.531-14.7a5.556,5.556,0,0,1,3.245-.968,5.63,5.63,0,0,1,3.289.968,6.19,6.19,0,0,1,2.156,2.761A10.814,10.814,0,0,1,89.98-7.7a10.732,10.732,0,0,1-.759,4.224A6.271,6.271,0,0,1,87.065-.715a5.585,5.585,0,0,1-3.289.979,5.512,5.512,0,0,1-3.245-.979,6.418,6.418,0,0,1-2.178-2.761A10.466,10.466,0,0,1,77.572-7.7Zm3.08,0a8.741,8.741,0,0,0,.385,2.717,4.2,4.2,0,0,0,1.089,1.826,2.356,2.356,0,0,0,1.65.649,2.356,2.356,0,0,0,1.65-.649,4.2,4.2,0,0,0,1.089-1.826A8.741,8.741,0,0,0,86.9-7.7a8.715,8.715,0,0,0-.385-2.728,4.2,4.2,0,0,0-1.089-1.815,2.356,2.356,0,0,0-1.65-.649,2.356,2.356,0,0,0-1.65.649,4.2,4.2,0,0,0-1.089,1.815A8.715,8.715,0,0,0,80.652-7.7Z" transform="translate(302 524)" fill="#34364d"/>
    <path id="Path_9" data-name="Path 9" d="M.352-2.838,9.152-15.4H11.33v9.856h2.42v2.706H11.33V0H8.052V-2.838ZM8.36-5.214v-5.148L4.708-5.214Zm6.886-7.238V-15.4H27.258L19.866,0h-3.41l6.16-12.452ZM27.764,0l7-7.3a11.557,11.557,0,0,0,1.364-1.727,3.175,3.175,0,0,0,.484-1.7,2.359,2.359,0,0,0-.539-1.5,2.041,2.041,0,0,0-1.705-.682,2.449,2.449,0,0,0-1.936.858,3.292,3.292,0,0,0-.748,2.244H28.556a6.441,6.441,0,0,1,.682-2.981,5.137,5.137,0,0,1,2-2.112,6.158,6.158,0,0,1,3.19-.781,6.284,6.284,0,0,1,2.42.429,4.843,4.843,0,0,1,1.705,1.144,4.938,4.938,0,0,1,1.012,1.584,4.7,4.7,0,0,1,.341,1.727,4.306,4.306,0,0,1-.616,2.244,8.4,8.4,0,0,1-1.584,1.914L33.748-2.9h6.424V0ZM44-2.42l2.882.7-2.662,5.5-2.156-.506ZM60.94-4.972a5.062,5.062,0,0,1-.506,2.332A4.713,4.713,0,0,1,59.07-1a5.867,5.867,0,0,1-1.914.957,7.739,7.739,0,0,1-2.178.308,7.86,7.86,0,0,1-3.553-.715,9.911,9.911,0,0,1-2.409-1.661l1.5-2.464a6.486,6.486,0,0,0,1.859,1.4,4.557,4.557,0,0,0,2.057.539,3.5,3.5,0,0,0,2.288-.671,2.353,2.353,0,0,0,.814-1.925,2.241,2.241,0,0,0-.44-1.408,2.772,2.772,0,0,0-1.144-.869,3.865,3.865,0,0,0-1.518-.3,9.829,9.829,0,0,0-2,.22,7.771,7.771,0,0,0-2.222.88l2.112-8.69h8.4v2.772H54.56L53.812-9.68a4.184,4.184,0,0,1,1.2-.308,12.29,12.29,0,0,1,1.287-.066,4.5,4.5,0,0,1,2.31.616A4.573,4.573,0,0,1,60.3-7.689,5.454,5.454,0,0,1,60.94-4.972ZM62.7-7.7a10.545,10.545,0,0,1,.781-4.235A6.333,6.333,0,0,1,65.659-14.7a5.556,5.556,0,0,1,3.245-.968,5.63,5.63,0,0,1,3.289.968,6.19,6.19,0,0,1,2.156,2.761A10.814,10.814,0,0,1,75.108-7.7a10.732,10.732,0,0,1-.759,4.224A6.271,6.271,0,0,1,72.193-.715,5.585,5.585,0,0,1,68.9.264a5.512,5.512,0,0,1-3.245-.979,6.418,6.418,0,0,1-2.178-2.761A10.466,10.466,0,0,1,62.7-7.7Zm3.08,0a8.741,8.741,0,0,0,.385,2.717,4.2,4.2,0,0,0,1.089,1.826,2.356,2.356,0,0,0,1.65.649,2.356,2.356,0,0,0,1.65-.649,4.2,4.2,0,0,0,1.089-1.826A8.741,8.741,0,0,0,72.028-7.7a8.715,8.715,0,0,0-.385-2.728,4.2,4.2,0,0,0-1.089-1.815,2.356,2.356,0,0,0-1.65-.649,2.356,2.356,0,0,0-1.65.649,4.2,4.2,0,0,0-1.089,1.815A8.715,8.715,0,0,0,65.78-7.7Zm11.066,0a10.545,10.545,0,0,1,.781-4.235A6.333,6.333,0,0,1,79.805-14.7a5.556,5.556,0,0,1,3.245-.968,5.63,5.63,0,0,1,3.289.968A6.19,6.19,0,0,1,88.5-11.935,10.814,10.814,0,0,1,89.254-7.7,10.732,10.732,0,0,1,88.5-3.476,6.271,6.271,0,0,1,86.339-.715,5.585,5.585,0,0,1,83.05.264a5.512,5.512,0,0,1-3.245-.979,6.418,6.418,0,0,1-2.178-2.761A10.466,10.466,0,0,1,76.846-7.7Zm3.08,0a8.741,8.741,0,0,0,.385,2.717A4.2,4.2,0,0,0,81.4-3.157a2.356,2.356,0,0,0,1.65.649,2.356,2.356,0,0,0,1.65-.649,4.2,4.2,0,0,0,1.089-1.826A8.741,8.741,0,0,0,86.174-7.7a8.715,8.715,0,0,0-.385-2.728A4.2,4.2,0,0,0,84.7-12.243a2.356,2.356,0,0,0-1.65-.649,2.356,2.356,0,0,0-1.65.649,4.2,4.2,0,0,0-1.089,1.815A8.715,8.715,0,0,0,79.926-7.7Z" transform="translate(470 728)" fill="#34364d"/>
  </g>
</svg>
