<svg xmlns="http://www.w3.org/2000/svg" xmlns:xlink="http://www.w3.org/1999/xlink" width="586.361" height="209.061" viewBox="0 0 586.361 209.061">
  <defs>
    <clipPath id="clip-path">
      <rect width="586.361" height="209.061" fill="none"/>
    </clipPath>
  </defs>
  <g id="Repeat_Grid_1" data-name="Repeat Grid 1" opacity="0.238" clip-path="url(#clip-path)">
    <g id="Group_31" data-name="Group 31" transform="translate(-478.639 -102.5)">
      <g id="Layer_2" data-name="Layer 2" transform="translate(636.476 138.246) rotate(17)">
        <g id="Layer_1" data-name="Layer 1">
          <path id="Path_1" data-name="Path 1" d="M43.978,23.429c.96-6.145-3.841-9.41-10.562-11.523l2.112-8.258L30.535,2.3l-1.92,8.066c-1.344-.384-2.689-.576-4.033-.96l2.112-8.066L21.7,0,19.588,8.258c-1.152-.192-2.3-.576-3.265-.768L9.41,5.761,8.066,11.138l3.649.96a2.631,2.631,0,0,1,2.3,2.881l-2.3,9.41a.711.711,0,0,1,.576.192c-.192,0-.384-.192-.576-.192L8.45,37.64a1.92,1.92,0,0,1-2.3,1.152L2.5,37.832,0,43.594l6.529,1.728c1.344.384,2.5.576,3.649.96l-2.112,8.45L12,55.788v-.1l1.152.384,2.112-8.258a30.728,30.728,0,0,1,4.033.96l-2.208,8.258,4.993,1.536,2.112-8.45c8.642,1.536,15.171.96,17.86-6.914,1.575-4.3,1-7.374-.96-9.6-.211-.23-.442-.461-.672-.672A14.21,14.21,0,0,0,37.64,31.13h.115l-.307-.173a8.027,8.027,0,0,0,6.529-7.528ZM32.455,39.753h0c-1.709,6.069-12.079,2.689-15.5,1.92l2.689-11.138c2.919.826,11.234,2.055,12.771,6.376a3.975,3.975,0,0,1,.23.941A4.686,4.686,0,0,1,32.455,39.753Zm1.536-16.324c-1.344,5.761-10.178,2.881-13.059,2.112l2.5-10.178c.749.192,1.92.442,3.226.787,3.726,1,8.469,2.881,7.336,7.278Z" fill="#171833"/>
        </g>
      </g>
      <g id="Layer_2-2" data-name="Layer 2" transform="translate(478.639 209.476) rotate(-25)">
        <g id="Layer_1-2" data-name="Layer 1">
          <path id="Path_1-2" data-name="Path 1" d="M43.978,23.429c.96-6.145-3.841-9.41-10.562-11.523l2.112-8.258L30.535,2.3l-1.92,8.066c-1.344-.384-2.689-.576-4.033-.96l2.112-8.066L21.7,0,19.588,8.258c-1.152-.192-2.3-.576-3.265-.768L9.41,5.761,8.066,11.138l3.649.96a2.631,2.631,0,0,1,2.3,2.881l-2.3,9.41a.711.711,0,0,1,.576.192c-.192,0-.384-.192-.576-.192L8.45,37.64a1.92,1.92,0,0,1-2.3,1.152L2.5,37.832,0,43.594l6.529,1.728c1.344.384,2.5.576,3.649.96l-2.112,8.45L12,55.788v-.1l1.152.384,2.112-8.258a30.728,30.728,0,0,1,4.033.96l-2.208,8.258,4.993,1.536,2.112-8.45c8.642,1.536,15.171.96,17.86-6.914,1.575-4.3,1-7.374-.96-9.6-.211-.23-.442-.461-.672-.672A14.21,14.21,0,0,0,37.64,31.13h.115l-.307-.173a8.027,8.027,0,0,0,6.529-7.528ZM32.455,39.753h0c-1.709,6.069-12.079,2.689-15.5,1.92l2.689-11.138c2.919.826,11.234,2.055,12.771,6.376a3.975,3.975,0,0,1,.23.941A4.686,4.686,0,0,1,32.455,39.753Zm1.536-16.324c-1.344,5.761-10.178,2.881-13.059,2.112l2.5-10.178c.749.192,1.92.442,3.226.787,3.726,1,8.469,2.881,7.336,7.278Z" fill="#171833"/>
        </g>
      </g>
      <g id="Ellipse_18" data-name="Ellipse 18" transform="translate(630 230)" fill="none" stroke="#171833" stroke-width="6">
        <circle cx="15" cy="15" r="15" stroke="none"/>
        <circle cx="15" cy="15" r="12" fill="none"/>
      </g>
      <g id="Ellipse_24" data-name="Ellipse 24" transform="translate(522 132)" fill="none" stroke="#171833" stroke-width="6">
        <circle cx="15" cy="15" r="15" stroke="none"/>
        <circle cx="15" cy="15" r="12" fill="none"/>
      </g>
      <circle id="Ellipse_23" data-name="Ellipse 23" cx="8.5" cy="8.5" r="8.5" transform="translate(624 104)" fill="none" stroke="#171833" stroke-width="3"/>
      <circle id="Ellipse_19" data-name="Ellipse 19" cx="4.5" cy="4.5" r="4.5" transform="translate(671 218)" fill="#171833"/>
      <circle id="Ellipse_22" data-name="Ellipse 22" cx="4.5" cy="4.5" r="4.5" transform="translate(581 147)" fill="#171833"/>
      <circle id="Ellipse_25" data-name="Ellipse 25" cx="4.5" cy="4.5" r="4.5" transform="translate(586 249)" fill="#171833"/>
      <g id="Group_30" data-name="Group 30" transform="translate(-16.07 304.964) rotate(-30)">
        <rect id="Rectangle_8" data-name="Rectangle 8" width="33.356" height="30.719" rx="4" transform="translate(549 190)" fill="#171833"/>
        <rect id="Rectangle_9" data-name="Rectangle 9" width="20.945" height="15.36" rx="7" transform="translate(568.332 197.646)" fill="#171833"/>
      </g>
    </g>
    <g id="Group_31-2" data-name="Group 31" transform="translate(-256.639 -102.5)">
      <g id="Layer_2-3" data-name="Layer 2" transform="translate(636.476 138.246) rotate(17)">
        <g id="Layer_1-3" data-name="Layer 1">
          <path id="Path_1-3" data-name="Path 1" d="M43.978,23.429c.96-6.145-3.841-9.41-10.562-11.523l2.112-8.258L30.535,2.3l-1.92,8.066c-1.344-.384-2.689-.576-4.033-.96l2.112-8.066L21.7,0,19.588,8.258c-1.152-.192-2.3-.576-3.265-.768L9.41,5.761,8.066,11.138l3.649.96a2.631,2.631,0,0,1,2.3,2.881l-2.3,9.41a.711.711,0,0,1,.576.192c-.192,0-.384-.192-.576-.192L8.45,37.64a1.92,1.92,0,0,1-2.3,1.152L2.5,37.832,0,43.594l6.529,1.728c1.344.384,2.5.576,3.649.96l-2.112,8.45L12,55.788v-.1l1.152.384,2.112-8.258a30.728,30.728,0,0,1,4.033.96l-2.208,8.258,4.993,1.536,2.112-8.45c8.642,1.536,15.171.96,17.86-6.914,1.575-4.3,1-7.374-.96-9.6-.211-.23-.442-.461-.672-.672A14.21,14.21,0,0,0,37.64,31.13h.115l-.307-.173a8.027,8.027,0,0,0,6.529-7.528ZM32.455,39.753h0c-1.709,6.069-12.079,2.689-15.5,1.92l2.689-11.138c2.919.826,11.234,2.055,12.771,6.376a3.975,3.975,0,0,1,.23.941A4.686,4.686,0,0,1,32.455,39.753Zm1.536-16.324c-1.344,5.761-10.178,2.881-13.059,2.112l2.5-10.178c.749.192,1.92.442,3.226.787,3.726,1,8.469,2.881,7.336,7.278Z" fill="#171833"/>
        </g>
      </g>
      <g id="Layer_2-4" data-name="Layer 2" transform="translate(478.639 209.476) rotate(-25)">
        <g id="Layer_1-4" data-name="Layer 1">
          <path id="Path_1-4" data-name="Path 1" d="M43.978,23.429c.96-6.145-3.841-9.41-10.562-11.523l2.112-8.258L30.535,2.3l-1.92,8.066c-1.344-.384-2.689-.576-4.033-.96l2.112-8.066L21.7,0,19.588,8.258c-1.152-.192-2.3-.576-3.265-.768L9.41,5.761,8.066,11.138l3.649.96a2.631,2.631,0,0,1,2.3,2.881l-2.3,9.41a.711.711,0,0,1,.576.192c-.192,0-.384-.192-.576-.192L8.45,37.64a1.92,1.92,0,0,1-2.3,1.152L2.5,37.832,0,43.594l6.529,1.728c1.344.384,2.5.576,3.649.96l-2.112,8.45L12,55.788v-.1l1.152.384,2.112-8.258a30.728,30.728,0,0,1,4.033.96l-2.208,8.258,4.993,1.536,2.112-8.45c8.642,1.536,15.171.96,17.86-6.914,1.575-4.3,1-7.374-.96-9.6-.211-.23-.442-.461-.672-.672A14.21,14.21,0,0,0,37.64,31.13h.115l-.307-.173a8.027,8.027,0,0,0,6.529-7.528ZM32.455,39.753h0c-1.709,6.069-12.079,2.689-15.5,1.92l2.689-11.138c2.919.826,11.234,2.055,12.771,6.376a3.975,3.975,0,0,1,.23.941A4.686,4.686,0,0,1,32.455,39.753Zm1.536-16.324c-1.344,5.761-10.178,2.881-13.059,2.112l2.5-10.178c.749.192,1.92.442,3.226.787,3.726,1,8.469,2.881,7.336,7.278Z" fill="#171833"/>
        </g>
      </g>
      <g id="Ellipse_18-2" data-name="Ellipse 18" transform="translate(630 230)" fill="none" stroke="#171833" stroke-width="6">
        <circle cx="15" cy="15" r="15" stroke="none"/>
        <circle cx="15" cy="15" r="12" fill="none"/>
      </g>
      <g id="Ellipse_24-2" data-name="Ellipse 24" transform="translate(522 132)" fill="none" stroke="#171833" stroke-width="6">
        <circle cx="15" cy="15" r="15" stroke="none"/>
        <circle cx="15" cy="15" r="12" fill="none"/>
      </g>
      <circle id="Ellipse_23-2" data-name="Ellipse 23" cx="8.5" cy="8.5" r="8.5" transform="translate(624 104)" fill="none" stroke="#171833" stroke-width="3"/>
      <circle id="Ellipse_19-2" data-name="Ellipse 19" cx="4.5" cy="4.5" r="4.5" transform="translate(671 218)" fill="#171833"/>
      <circle id="Ellipse_22-2" data-name="Ellipse 22" cx="4.5" cy="4.5" r="4.5" transform="translate(581 147)" fill="#171833"/>
      <circle id="Ellipse_25-2" data-name="Ellipse 25" cx="4.5" cy="4.5" r="4.5" transform="translate(586 249)" fill="#171833"/>
      <g id="Group_30-2" data-name="Group 30" transform="translate(-16.07 304.964) rotate(-30)">
        <rect id="Rectangle_8-2" data-name="Rectangle 8" width="33.356" height="30.719" rx="4" transform="translate(549 190)" fill="#171833"/>
        <rect id="Rectangle_9-2" data-name="Rectangle 9" width="20.945" height="15.36" rx="7" transform="translate(568.332 197.646)" fill="#171833"/>
      </g>
    </g>
    <g id="Group_31-3" data-name="Group 31" transform="translate(-34.639 -102.5)">
      <g id="Layer_2-5" data-name="Layer 2" transform="translate(636.476 138.246) rotate(17)">
        <g id="Layer_1-5" data-name="Layer 1">
          <path id="Path_1-5" data-name="Path 1" d="M43.978,23.429c.96-6.145-3.841-9.41-10.562-11.523l2.112-8.258L30.535,2.3l-1.92,8.066c-1.344-.384-2.689-.576-4.033-.96l2.112-8.066L21.7,0,19.588,8.258c-1.152-.192-2.3-.576-3.265-.768L9.41,5.761,8.066,11.138l3.649.96a2.631,2.631,0,0,1,2.3,2.881l-2.3,9.41a.711.711,0,0,1,.576.192c-.192,0-.384-.192-.576-.192L8.45,37.64a1.92,1.92,0,0,1-2.3,1.152L2.5,37.832,0,43.594l6.529,1.728c1.344.384,2.5.576,3.649.96l-2.112,8.45L12,55.788v-.1l1.152.384,2.112-8.258a30.728,30.728,0,0,1,4.033.96l-2.208,8.258,4.993,1.536,2.112-8.45c8.642,1.536,15.171.96,17.86-6.914,1.575-4.3,1-7.374-.96-9.6-.211-.23-.442-.461-.672-.672A14.21,14.21,0,0,0,37.64,31.13h.115l-.307-.173a8.027,8.027,0,0,0,6.529-7.528ZM32.455,39.753h0c-1.709,6.069-12.079,2.689-15.5,1.92l2.689-11.138c2.919.826,11.234,2.055,12.771,6.376a3.975,3.975,0,0,1,.23.941A4.686,4.686,0,0,1,32.455,39.753Zm1.536-16.324c-1.344,5.761-10.178,2.881-13.059,2.112l2.5-10.178c.749.192,1.92.442,3.226.787,3.726,1,8.469,2.881,7.336,7.278Z" fill="#171833"/>
        </g>
      </g>
      <g id="Layer_2-6" data-name="Layer 2" transform="translate(478.639 209.476) rotate(-25)">
        <g id="Layer_1-6" data-name="Layer 1">
          <path id="Path_1-6" data-name="Path 1" d="M43.978,23.429c.96-6.145-3.841-9.41-10.562-11.523l2.112-8.258L30.535,2.3l-1.92,8.066c-1.344-.384-2.689-.576-4.033-.96l2.112-8.066L21.7,0,19.588,8.258c-1.152-.192-2.3-.576-3.265-.768L9.41,5.761,8.066,11.138l3.649.96a2.631,2.631,0,0,1,2.3,2.881l-2.3,9.41a.711.711,0,0,1,.576.192c-.192,0-.384-.192-.576-.192L8.45,37.64a1.92,1.92,0,0,1-2.3,1.152L2.5,37.832,0,43.594l6.529,1.728c1.344.384,2.5.576,3.649.96l-2.112,8.45L12,55.788v-.1l1.152.384,2.112-8.258a30.728,30.728,0,0,1,4.033.96l-2.208,8.258,4.993,1.536,2.112-8.45c8.642,1.536,15.171.96,17.86-6.914,1.575-4.3,1-7.374-.96-9.6-.211-.23-.442-.461-.672-.672A14.21,14.21,0,0,0,37.64,31.13h.115l-.307-.173a8.027,8.027,0,0,0,6.529-7.528ZM32.455,39.753h0c-1.709,6.069-12.079,2.689-15.5,1.92l2.689-11.138c2.919.826,11.234,2.055,12.771,6.376a3.975,3.975,0,0,1,.23.941A4.686,4.686,0,0,1,32.455,39.753Zm1.536-16.324c-1.344,5.761-10.178,2.881-13.059,2.112l2.5-10.178c.749.192,1.92.442,3.226.787,3.726,1,8.469,2.881,7.336,7.278Z" fill="#171833"/>
        </g>
      </g>
      <g id="Ellipse_18-3" data-name="Ellipse 18" transform="translate(630 230)" fill="none" stroke="#171833" stroke-width="6">
        <circle cx="15" cy="15" r="15" stroke="none"/>
        <circle cx="15" cy="15" r="12" fill="none"/>
      </g>
      <g id="Ellipse_24-3" data-name="Ellipse 24" transform="translate(522 132)" fill="none" stroke="#171833" stroke-width="6">
        <circle cx="15" cy="15" r="15" stroke="none"/>
        <circle cx="15" cy="15" r="12" fill="none"/>
      </g>
      <circle id="Ellipse_23-3" data-name="Ellipse 23" cx="8.5" cy="8.5" r="8.5" transform="translate(624 104)" fill="none" stroke="#171833" stroke-width="3"/>
      <circle id="Ellipse_19-3" data-name="Ellipse 19" cx="4.5" cy="4.5" r="4.5" transform="translate(671 218)" fill="#171833"/>
      <circle id="Ellipse_22-3" data-name="Ellipse 22" cx="4.5" cy="4.5" r="4.5" transform="translate(581 147)" fill="#171833"/>
      <circle id="Ellipse_25-3" data-name="Ellipse 25" cx="4.5" cy="4.5" r="4.5" transform="translate(586 249)" fill="#171833"/>
      <g id="Group_30-3" data-name="Group 30" transform="translate(-16.07 304.964) rotate(-30)">
        <rect id="Rectangle_8-3" data-name="Rectangle 8" width="33.356" height="30.719" rx="4" transform="translate(549 190)" fill="#171833"/>
        <rect id="Rectangle_9-3" data-name="Rectangle 9" width="20.945" height="15.36" rx="7" transform="translate(568.332 197.646)" fill="#171833"/>
      </g>
    </g>
    <g id="Group_31-4" data-name="Group 31" transform="translate(-478.639 78.5)">
      <g id="Layer_2-7" data-name="Layer 2" transform="translate(636.476 138.246) rotate(17)">
        <g id="Layer_1-7" data-name="Layer 1">
          <path id="Path_1-7" data-name="Path 1" d="M43.978,23.429c.96-6.145-3.841-9.41-10.562-11.523l2.112-8.258L30.535,2.3l-1.92,8.066c-1.344-.384-2.689-.576-4.033-.96l2.112-8.066L21.7,0,19.588,8.258c-1.152-.192-2.3-.576-3.265-.768L9.41,5.761,8.066,11.138l3.649.96a2.631,2.631,0,0,1,2.3,2.881l-2.3,9.41a.711.711,0,0,1,.576.192c-.192,0-.384-.192-.576-.192L8.45,37.64a1.92,1.92,0,0,1-2.3,1.152L2.5,37.832,0,43.594l6.529,1.728c1.344.384,2.5.576,3.649.96l-2.112,8.45L12,55.788v-.1l1.152.384,2.112-8.258a30.728,30.728,0,0,1,4.033.96l-2.208,8.258,4.993,1.536,2.112-8.45c8.642,1.536,15.171.96,17.86-6.914,1.575-4.3,1-7.374-.96-9.6-.211-.23-.442-.461-.672-.672A14.21,14.21,0,0,0,37.64,31.13h.115l-.307-.173a8.027,8.027,0,0,0,6.529-7.528ZM32.455,39.753h0c-1.709,6.069-12.079,2.689-15.5,1.92l2.689-11.138c2.919.826,11.234,2.055,12.771,6.376a3.975,3.975,0,0,1,.23.941A4.686,4.686,0,0,1,32.455,39.753Zm1.536-16.324c-1.344,5.761-10.178,2.881-13.059,2.112l2.5-10.178c.749.192,1.92.442,3.226.787,3.726,1,8.469,2.881,7.336,7.278Z" fill="#171833"/>
        </g>
      </g>
      <g id="Layer_2-8" data-name="Layer 2" transform="translate(478.639 209.476) rotate(-25)">
        <g id="Layer_1-8" data-name="Layer 1">
          <path id="Path_1-8" data-name="Path 1" d="M43.978,23.429c.96-6.145-3.841-9.41-10.562-11.523l2.112-8.258L30.535,2.3l-1.92,8.066c-1.344-.384-2.689-.576-4.033-.96l2.112-8.066L21.7,0,19.588,8.258c-1.152-.192-2.3-.576-3.265-.768L9.41,5.761,8.066,11.138l3.649.96a2.631,2.631,0,0,1,2.3,2.881l-2.3,9.41a.711.711,0,0,1,.576.192c-.192,0-.384-.192-.576-.192L8.45,37.64a1.92,1.92,0,0,1-2.3,1.152L2.5,37.832,0,43.594l6.529,1.728c1.344.384,2.5.576,3.649.96l-2.112,8.45L12,55.788v-.1l1.152.384,2.112-8.258a30.728,30.728,0,0,1,4.033.96l-2.208,8.258,4.993,1.536,2.112-8.45c8.642,1.536,15.171.96,17.86-6.914,1.575-4.3,1-7.374-.96-9.6-.211-.23-.442-.461-.672-.672A14.21,14.21,0,0,0,37.64,31.13h.115l-.307-.173a8.027,8.027,0,0,0,6.529-7.528ZM32.455,39.753h0c-1.709,6.069-12.079,2.689-15.5,1.92l2.689-11.138c2.919.826,11.234,2.055,12.771,6.376a3.975,3.975,0,0,1,.23.941A4.686,4.686,0,0,1,32.455,39.753Zm1.536-16.324c-1.344,5.761-10.178,2.881-13.059,2.112l2.5-10.178c.749.192,1.92.442,3.226.787,3.726,1,8.469,2.881,7.336,7.278Z" fill="#171833"/>
        </g>
      </g>
      <g id="Ellipse_18-4" data-name="Ellipse 18" transform="translate(630 230)" fill="none" stroke="#171833" stroke-width="6">
        <circle cx="15" cy="15" r="15" stroke="none"/>
        <circle cx="15" cy="15" r="12" fill="none"/>
      </g>
      <g id="Ellipse_24-4" data-name="Ellipse 24" transform="translate(522 132)" fill="none" stroke="#171833" stroke-width="6">
        <circle cx="15" cy="15" r="15" stroke="none"/>
        <circle cx="15" cy="15" r="12" fill="none"/>
      </g>
      <circle id="Ellipse_23-4" data-name="Ellipse 23" cx="8.5" cy="8.5" r="8.5" transform="translate(624 104)" fill="none" stroke="#171833" stroke-width="3"/>
      <circle id="Ellipse_19-4" data-name="Ellipse 19" cx="4.5" cy="4.5" r="4.5" transform="translate(671 218)" fill="#171833"/>
      <circle id="Ellipse_22-4" data-name="Ellipse 22" cx="4.5" cy="4.5" r="4.5" transform="translate(581 147)" fill="#171833"/>
      <circle id="Ellipse_25-4" data-name="Ellipse 25" cx="4.5" cy="4.5" r="4.5" transform="translate(586 249)" fill="#171833"/>
      <g id="Group_30-4" data-name="Group 30" transform="translate(-16.07 304.964) rotate(-30)">
        <rect id="Rectangle_8-4" data-name="Rectangle 8" width="33.356" height="30.719" rx="4" transform="translate(549 190)" fill="#171833"/>
        <rect id="Rectangle_9-4" data-name="Rectangle 9" width="20.945" height="15.36" rx="7" transform="translate(568.332 197.646)" fill="#171833"/>
      </g>
    </g>
    <g id="Group_31-5" data-name="Group 31" transform="translate(-256.639 78.5)">
      <g id="Layer_2-9" data-name="Layer 2" transform="translate(636.476 138.246) rotate(17)">
        <g id="Layer_1-9" data-name="Layer 1">
          <path id="Path_1-9" data-name="Path 1" d="M43.978,23.429c.96-6.145-3.841-9.41-10.562-11.523l2.112-8.258L30.535,2.3l-1.92,8.066c-1.344-.384-2.689-.576-4.033-.96l2.112-8.066L21.7,0,19.588,8.258c-1.152-.192-2.3-.576-3.265-.768L9.41,5.761,8.066,11.138l3.649.96a2.631,2.631,0,0,1,2.3,2.881l-2.3,9.41a.711.711,0,0,1,.576.192c-.192,0-.384-.192-.576-.192L8.45,37.64a1.92,1.92,0,0,1-2.3,1.152L2.5,37.832,0,43.594l6.529,1.728c1.344.384,2.5.576,3.649.96l-2.112,8.45L12,55.788v-.1l1.152.384,2.112-8.258a30.728,30.728,0,0,1,4.033.96l-2.208,8.258,4.993,1.536,2.112-8.45c8.642,1.536,15.171.96,17.86-6.914,1.575-4.3,1-7.374-.96-9.6-.211-.23-.442-.461-.672-.672A14.21,14.21,0,0,0,37.64,31.13h.115l-.307-.173a8.027,8.027,0,0,0,6.529-7.528ZM32.455,39.753h0c-1.709,6.069-12.079,2.689-15.5,1.92l2.689-11.138c2.919.826,11.234,2.055,12.771,6.376a3.975,3.975,0,0,1,.23.941A4.686,4.686,0,0,1,32.455,39.753Zm1.536-16.324c-1.344,5.761-10.178,2.881-13.059,2.112l2.5-10.178c.749.192,1.92.442,3.226.787,3.726,1,8.469,2.881,7.336,7.278Z" fill="#171833"/>
        </g>
      </g>
      <g id="Layer_2-10" data-name="Layer 2" transform="translate(478.639 209.476) rotate(-25)">
        <g id="Layer_1-10" data-name="Layer 1">
          <path id="Path_1-10" data-name="Path 1" d="M43.978,23.429c.96-6.145-3.841-9.41-10.562-11.523l2.112-8.258L30.535,2.3l-1.92,8.066c-1.344-.384-2.689-.576-4.033-.96l2.112-8.066L21.7,0,19.588,8.258c-1.152-.192-2.3-.576-3.265-.768L9.41,5.761,8.066,11.138l3.649.96a2.631,2.631,0,0,1,2.3,2.881l-2.3,9.41a.711.711,0,0,1,.576.192c-.192,0-.384-.192-.576-.192L8.45,37.64a1.92,1.92,0,0,1-2.3,1.152L2.5,37.832,0,43.594l6.529,1.728c1.344.384,2.5.576,3.649.96l-2.112,8.45L12,55.788v-.1l1.152.384,2.112-8.258a30.728,30.728,0,0,1,4.033.96l-2.208,8.258,4.993,1.536,2.112-8.45c8.642,1.536,15.171.96,17.86-6.914,1.575-4.3,1-7.374-.96-9.6-.211-.23-.442-.461-.672-.672A14.21,14.21,0,0,0,37.64,31.13h.115l-.307-.173a8.027,8.027,0,0,0,6.529-7.528ZM32.455,39.753h0c-1.709,6.069-12.079,2.689-15.5,1.92l2.689-11.138c2.919.826,11.234,2.055,12.771,6.376a3.975,3.975,0,0,1,.23.941A4.686,4.686,0,0,1,32.455,39.753Zm1.536-16.324c-1.344,5.761-10.178,2.881-13.059,2.112l2.5-10.178c.749.192,1.92.442,3.226.787,3.726,1,8.469,2.881,7.336,7.278Z" fill="#171833"/>
        </g>
      </g>
      <g id="Ellipse_18-5" data-name="Ellipse 18" transform="translate(630 230)" fill="none" stroke="#171833" stroke-width="6">
        <circle cx="15" cy="15" r="15" stroke="none"/>
        <circle cx="15" cy="15" r="12" fill="none"/>
      </g>
      <g id="Ellipse_24-5" data-name="Ellipse 24" transform="translate(522 132)" fill="none" stroke="#171833" stroke-width="6">
        <circle cx="15" cy="15" r="15" stroke="none"/>
        <circle cx="15" cy="15" r="12" fill="none"/>
      </g>
      <circle id="Ellipse_23-5" data-name="Ellipse 23" cx="8.5" cy="8.5" r="8.5" transform="translate(624 104)" fill="none" stroke="#171833" stroke-width="3"/>
      <circle id="Ellipse_19-5" data-name="Ellipse 19" cx="4.5" cy="4.5" r="4.5" transform="translate(671 218)" fill="#171833"/>
      <circle id="Ellipse_22-5" data-name="Ellipse 22" cx="4.5" cy="4.5" r="4.5" transform="translate(581 147)" fill="#171833"/>
      <circle id="Ellipse_25-5" data-name="Ellipse 25" cx="4.5" cy="4.5" r="4.5" transform="translate(586 249)" fill="#171833"/>
      <g id="Group_30-5" data-name="Group 30" transform="translate(-16.07 304.964) rotate(-30)">
        <rect id="Rectangle_8-5" data-name="Rectangle 8" width="33.356" height="30.719" rx="4" transform="translate(549 190)" fill="#171833"/>
        <rect id="Rectangle_9-5" data-name="Rectangle 9" width="20.945" height="15.36" rx="7" transform="translate(568.332 197.646)" fill="#171833"/>
      </g>
    </g>
    <g id="Group_31-6" data-name="Group 31" transform="translate(-34.639 78.5)">
      <g id="Layer_2-11" data-name="Layer 2" transform="translate(636.476 138.246) rotate(17)">
        <g id="Layer_1-11" data-name="Layer 1">
          <path id="Path_1-11" data-name="Path 1" d="M43.978,23.429c.96-6.145-3.841-9.41-10.562-11.523l2.112-8.258L30.535,2.3l-1.92,8.066c-1.344-.384-2.689-.576-4.033-.96l2.112-8.066L21.7,0,19.588,8.258c-1.152-.192-2.3-.576-3.265-.768L9.41,5.761,8.066,11.138l3.649.96a2.631,2.631,0,0,1,2.3,2.881l-2.3,9.41a.711.711,0,0,1,.576.192c-.192,0-.384-.192-.576-.192L8.45,37.64a1.92,1.92,0,0,1-2.3,1.152L2.5,37.832,0,43.594l6.529,1.728c1.344.384,2.5.576,3.649.96l-2.112,8.45L12,55.788v-.1l1.152.384,2.112-8.258a30.728,30.728,0,0,1,4.033.96l-2.208,8.258,4.993,1.536,2.112-8.45c8.642,1.536,15.171.96,17.86-6.914,1.575-4.3,1-7.374-.96-9.6-.211-.23-.442-.461-.672-.672A14.21,14.21,0,0,0,37.64,31.13h.115l-.307-.173a8.027,8.027,0,0,0,6.529-7.528ZM32.455,39.753h0c-1.709,6.069-12.079,2.689-15.5,1.92l2.689-11.138c2.919.826,11.234,2.055,12.771,6.376a3.975,3.975,0,0,1,.23.941A4.686,4.686,0,0,1,32.455,39.753Zm1.536-16.324c-1.344,5.761-10.178,2.881-13.059,2.112l2.5-10.178c.749.192,1.92.442,3.226.787,3.726,1,8.469,2.881,7.336,7.278Z" fill="#171833"/>
        </g>
      </g>
      <g id="Layer_2-12" data-name="Layer 2" transform="translate(478.639 209.476) rotate(-25)">
        <g id="Layer_1-12" data-name="Layer 1">
          <path id="Path_1-12" data-name="Path 1" d="M43.978,23.429c.96-6.145-3.841-9.41-10.562-11.523l2.112-8.258L30.535,2.3l-1.92,8.066c-1.344-.384-2.689-.576-4.033-.96l2.112-8.066L21.7,0,19.588,8.258c-1.152-.192-2.3-.576-3.265-.768L9.41,5.761,8.066,11.138l3.649.96a2.631,2.631,0,0,1,2.3,2.881l-2.3,9.41a.711.711,0,0,1,.576.192c-.192,0-.384-.192-.576-.192L8.45,37.64a1.92,1.92,0,0,1-2.3,1.152L2.5,37.832,0,43.594l6.529,1.728c1.344.384,2.5.576,3.649.96l-2.112,8.45L12,55.788v-.1l1.152.384,2.112-8.258a30.728,30.728,0,0,1,4.033.96l-2.208,8.258,4.993,1.536,2.112-8.45c8.642,1.536,15.171.96,17.86-6.914,1.575-4.3,1-7.374-.96-9.6-.211-.23-.442-.461-.672-.672A14.21,14.21,0,0,0,37.64,31.13h.115l-.307-.173a8.027,8.027,0,0,0,6.529-7.528ZM32.455,39.753h0c-1.709,6.069-12.079,2.689-15.5,1.92l2.689-11.138c2.919.826,11.234,2.055,12.771,6.376a3.975,3.975,0,0,1,.23.941A4.686,4.686,0,0,1,32.455,39.753Zm1.536-16.324c-1.344,5.761-10.178,2.881-13.059,2.112l2.5-10.178c.749.192,1.92.442,3.226.787,3.726,1,8.469,2.881,7.336,7.278Z" fill="#171833"/>
        </g>
      </g>
      <g id="Ellipse_18-6" data-name="Ellipse 18" transform="translate(630 230)" fill="none" stroke="#171833" stroke-width="6">
        <circle cx="15" cy="15" r="15" stroke="none"/>
        <circle cx="15" cy="15" r="12" fill="none"/>
      </g>
      <g id="Ellipse_24-6" data-name="Ellipse 24" transform="translate(522 132)" fill="none" stroke="#171833" stroke-width="6">
        <circle cx="15" cy="15" r="15" stroke="none"/>
        <circle cx="15" cy="15" r="12" fill="none"/>
      </g>
      <circle id="Ellipse_23-6" data-name="Ellipse 23" cx="8.5" cy="8.5" r="8.5" transform="translate(624 104)" fill="none" stroke="#171833" stroke-width="3"/>
      <circle id="Ellipse_19-6" data-name="Ellipse 19" cx="4.5" cy="4.5" r="4.5" transform="translate(671 218)" fill="#171833"/>
      <circle id="Ellipse_22-6" data-name="Ellipse 22" cx="4.5" cy="4.5" r="4.5" transform="translate(581 147)" fill="#171833"/>
      <circle id="Ellipse_25-6" data-name="Ellipse 25" cx="4.5" cy="4.5" r="4.5" transform="translate(586 249)" fill="#171833"/>
      <g id="Group_30-6" data-name="Group 30" transform="translate(-16.07 304.964) rotate(-30)">
        <rect id="Rectangle_8-6" data-name="Rectangle 8" width="33.356" height="30.719" rx="4" transform="translate(549 190)" fill="#171833"/>
        <rect id="Rectangle_9-6" data-name="Rectangle 9" width="20.945" height="15.36" rx="7" transform="translate(568.332 197.646)" fill="#171833"/>
      </g>
    </g>
  </g>
</svg>
